<svg width="499" height="1200" version="1.1" xmlns="http://www.w3.org/2000/svg" desc="Created with imagetracer.js version 1.2.6" ><path fill="rgb(19,20,22)" stroke="rgb(19,20,22)" stroke-width="1" opacity="0.9764705882352941" d="M 67.5 48 Q 71.3 47 70 50 L 66 51 L 67.5 48 Z " /><path fill="rgb(19,20,22)" stroke="rgb(19,20,22)" stroke-width="1" opacity="0.9764705882352941" d="M 243.5 74 L 244 76.5 L 243 76.5 L 243.5 74 Z " /><path fill="rgb(19,20,22)" stroke="rgb(19,20,22)" stroke-width="1" opacity="0.9764705882352941" d="M 208.5 76 L 209 78 L 211.5 77 L 210.5 79 L 208 77.5 L 208.5 76 Z " /><path fill="rgb(19,20,22)" stroke="rgb(19,20,22)" stroke-width="1" opacity="0.9764705882352941" d="M 215.5 77 L 216 78.5 L 215.5 81 Q 212.8 79.8 215 78.5 L 215.5 77 Z " /><path fill="rgb(19,20,22)" stroke="rgb(19,20,22)" stroke-width="1" opacity="0.9764705882352941" d="M 219.5 77 L 220 78.5 L 218.5 83 L 218 79.5 L 219.5 77 Z " /><path fill="rgb(19,20,22)" stroke="rgb(19,20,22)" stroke-width="1" opacity="0.9764705882352941" d="M 204.5 78 L 206 80.5 L 205 80.5 L 204.5 78 Z " /><path fill="rgb(19,20,22)" stroke="rgb(19,20,22)" stroke-width="1" opacity="0.9764705882352941" d="M 224.5 78 L 227 79.5 L 225.5 79 L 223.5 80 L 224.5 78 Z " /><path fill="rgb(19,20,22)" stroke="rgb(19,20,22)" stroke-width="1" opacity="0.9764705882352941" d="M 237.5 78 L 237 79.5 L 234.5 83 L 236 80.5 L 237.5 78 Z " /><path fill="rgb(19,20,22)" stroke="rgb(19,20,22)" stroke-width="1" opacity="0.9764705882352941" d="M 242.5 78 L 241.5 80 L 242.5 78 Z " /><path fill="rgb(19,20,22)" stroke="rgb(19,20,22)" stroke-width="1" opacity="0.9764705882352941" d="M 231.5 79 L 232 84.5 L 231 84.5 L 231.5 79 Z " /><path fill="rgb(19,20,22)" stroke="rgb(19,20,22)" stroke-width="1" opacity="0.9764705882352941" d="M 240.5 81 L 240 82.5 L 238.5 85 L 239 83.5 L 240.5 81 Z " /><path fill="rgb(19,20,22)" stroke="rgb(19,20,22)" stroke-width="1" opacity="0.9764705882352941" d="M 212.5 83 L 213 85.5 L 211 86.5 L 212.5 83 Z " /><path fill="rgb(19,20,22)" stroke="rgb(19,20,22)" stroke-width="1" opacity="0.9764705882352941" d="M 244.5 84 L 245 86.5 L 244 86.5 L 244.5 84 Z " /><path fill="rgb(19,20,22)" stroke="rgb(19,20,22)" stroke-width="1" opacity="0.9764705882352941" d="M 230.5 86 L 229.5 88 L 230.5 86 Z " /><path fill="rgb(19,20,22)" stroke="rgb(19,20,22)" stroke-width="1" opacity="0.9764705882352941" d="M 142.5 102 L 143 104.5 L 142 104.5 L 142.5 102 Z " /><path fill="rgb(19,20,22)" stroke="rgb(19,20,22)" stroke-width="1" opacity="0.9764705882352941" d="M 151.5 102 L 151 103.5 L 152.5 106 L 153 104 L 173 119 L 174 121.5 L 173 123.5 L 174.5 123 L 179 126.5 L 181 129.5 L 179 130.5 L 179 132.5 L 178.5 135 L 177.5 131 L 176 131.5 L 177 129.5 L 176.5 128 L 178 127.5 L 177 125 L 174.5 124 L 174 126 L 172 126.5 L 173 129 Q 170.3 130.1 171 127.5 L 169 126.5 Q 169.8 128.8 167.5 128 Q 165.2 123.7 163 125.5 Q 164.5 117.9 161 119 L 160.5 125 L 158 124 L 157.5 121 L 156 124 L 151.5 125 L 148.5 119 L 147 124.5 L 149 124.5 Q 150.7 129.3 146.5 128 L 143.5 130 L 141.5 128 L 132 127.5 L 135 127 L 136.5 124 L 137 127 L 142 126.5 L 139 125 Q 136.4 122.7 137 116.5 L 139 115.5 L 138 120 L 140 119.5 L 140 112.5 L 141 107 L 144 108.5 L 145 111.5 L 144 113.5 L 146 114.5 L 146.5 106 L 149 107.5 Q 147.1 102.1 150.5 103 L 151.5 102 Z M 158 111 L 157 114 L 158 114 L 158 111 Z M 153 114 Q 154 116 153 123 L 154 123 L 154 115 L 153 114 Z M 152 116 L 151 119 L 152 119 L 152 116 Z M 162 116 Q 161 119 164 118 Q 165 115 162 116 Z M 165 116 L 165 118 L 164 121 L 165 123 L 167 117 L 165 116 Z M 168 118 L 167 121 L 168 121 L 168 118 Z M 143 123 L 144 128 L 145 128 Q 147 122 143 123 Z " /><path fill="rgb(19,20,22)" stroke="rgb(19,20,22)" stroke-width="1" opacity="0.9764705882352941" d="M 138.5 110 L 137.5 112 L 138.5 110 Z " /><path fill="rgb(19,20,22)" stroke="rgb(19,20,22)" stroke-width="1" opacity="0.9764705882352941" d="M 127.5 116 L 128 117.5 L 126 118.5 L 127.5 116 Z " /><path fill="rgb(19,20,22)" stroke="rgb(19,20,22)" stroke-width="1" opacity="0.9764705882352941" d="M 293.5 117 L 292.5 119 L 293.5 117 Z " /><path fill="rgb(19,20,22)" stroke="rgb(19,20,22)" stroke-width="1" opacity="0.9764705882352941" d="M 345.5 123 L 349.5 124 L 356 128.5 L 352.5 130 L 344 124.5 L 345.5 123 Z " /><path fill="rgb(19,20,22)" stroke="rgb(19,20,22)" stroke-width="1" opacity="0.9764705882352941" d="M 119.5 126 L 120 128 L 118 127.5 L 119.5 126 Z " /><path fill="rgb(19,20,22)" stroke="rgb(19,20,22)" stroke-width="1" opacity="0.9764705882352941" d="M 123.5 126 L 124.5 128 L 122 127.5 L 123.5 126 Z " /><path fill="rgb(19,20,22)" stroke="rgb(19,20,22)" stroke-width="1" opacity="0.9764705882352941" d="M 286.5 130 L 287 132.5 L 286 132.5 L 286.5 130 Z " /><path fill="rgb(19,20,22)" stroke="rgb(19,20,22)" stroke-width="1" opacity="0.9764705882352941" d="M 21.5 131 L 22 133 L 24.5 134 L 26 133.5 L 25.5 135 L 27.5 134 L 26.5 136 L 24.5 135 L 22 136 L 21.5 131 Z " /><path fill="rgb(19,20,22)" stroke="rgb(19,20,22)" stroke-width="1" opacity="0.9764705882352941" d="M 360.5 132 L 367 135.5 L 365.5 136 L 360 134 L 360.5 132 Z " /><path fill="rgb(19,20,22)" stroke="rgb(19,20,22)" stroke-width="1" opacity="0.9764705882352941" d="M 96.5 133 L 99 133.5 L 96.5 134 L 96.5 133 Z " /><path fill="rgb(19,20,22)" stroke="rgb(19,20,22)" stroke-width="1" opacity="0.9764705882352941" d="M 183.5 133 L 184.5 135 L 183.5 133 Z " /><path fill="rgb(19,20,22)" stroke="rgb(19,20,22)" stroke-width="1" opacity="0.9764705882352941" d="M 61.5 136 Q 63.8 135.3 63 137.5 L 61.5 136 Z " /><path fill="rgb(19,20,22)" stroke="rgb(19,20,22)" stroke-width="1" opacity="0.9764705882352941" d="M 88.5 136 L 89 138 L 87 137.5 L 88.5 136 Z " /><path fill="rgb(19,20,22)" stroke="rgb(19,20,22)" stroke-width="1" opacity="0.9764705882352941" d="M 186.5 136 L 189 142 L 192 143.5 L 197 151.5 L 194.5 152 L 193 150.5 L 194 148.5 L 190.5 143 L 189.5 145 L 188.5 142 L 186 143.5 L 185 141.5 L 186 139.5 L 184 139.5 L 186.5 136 Z " /><path fill="rgb(19,20,22)" stroke="rgb(19,20,22)" stroke-width="1" opacity="0.9764705882352941" d="M 284.5 136 Q 286.8 135.3 286 137.5 L 285 143 L 281 145.5 L 283 147.5 L 280 150.5 L 281 151.5 L 279.5 154 L 278 154.5 L 281 155.5 L 279 156.5 L 280 159.5 L 279 161.5 L 279.5 163 L 276.5 159 L 276 161.5 L 277 163.5 L 274.5 167 L 276.5 166 L 278 168.5 L 276 168.5 L 277 172.5 L 276 175 L 278 175.5 L 276.5 178 L 276 175 L 274 175.5 L 275 180.5 L 272.5 184 L 269.5 186 L 269.5 188 L 266.5 187 L 263.5 194 Q 259 195 258 192.5 L 257 189.5 Q 259.3 188.3 256.5 187 L 252.5 186 L 250.5 187 L 249.5 186 L 227.5 186 L 226.5 187 L 214.5 187 L 203 189 Q 201.9 185.5 209.5 187 L 218.5 183 L 222.5 183 L 224.5 183 L 227.5 184 L 230.5 183 L 232.5 183 L 234.5 184 L 239.5 182 L 240 184 L 242 183.5 L 241.5 182 Q 247.6 182.6 250.5 180 L 251.5 181 L 254 179.5 L 253.5 181 L 256 179.5 L 255.5 178 Q 257 181.5 258.5 179 Q 262.3 179.8 263 177.5 L 264 173 L 267 171.5 Q 264.8 170.3 267.5 169 Q 269.8 169.8 269 167.5 L 270 163.5 L 268 163.5 L 272.5 158 Q 275.8 159.1 275 156.5 L 276 154.5 L 274 154.5 Q 273.3 152.3 275.5 153 L 277 153.5 L 278 150.5 L 277.5 149 L 279.5 150 L 280 147.5 Q 277.5 146 281 144.5 L 284.5 136 Z M 272 160 L 271 165 L 272 168 L 272 166 L 274 166 L 274 164 L 274 162 Q 275 159 272 160 Z M 274 173 L 272 175 L 274 175 L 274 173 Z M 266 174 L 266 177 L 264 177 L 266 179 Q 270 180 268 176 L 270 176 L 266 174 Z M 272 178 L 269 180 L 269 181 L 272 180 L 272 178 Z " /><path fill="rgb(19,20,22)" stroke="rgb(19,20,22)" stroke-width="1" opacity="0.9764705882352941" d="M 376.5 138 L 377 141 L 375 140.5 L 376.5 138 Z " /><path fill="rgb(19,20,22)" stroke="rgb(19,20,22)" stroke-width="1" opacity="0.9764705882352941" d="M 391.5 149 L 394 149.5 L 391.5 150 L 391.5 149 Z " /><path fill="rgb(19,20,22)" stroke="rgb(19,20,22)" stroke-width="1" opacity="0.9764705882352941" d="M 204.5 165 L 205.5 167 L 204.5 165 Z " /><path fill="rgb(19,20,22)" stroke="rgb(19,20,22)" stroke-width="1" opacity="0.9764705882352941" d="M 451.5 165 L 452.5 167 L 451.5 165 Z " /><path fill="rgb(19,20,22)" stroke="rgb(19,20,22)" stroke-width="1" opacity="0.9764705882352941" d="M 209.5 174 L 210.5 176 L 209.5 174 Z " /><path fill="rgb(19,20,22)" stroke="rgb(19,20,22)" stroke-width="1" opacity="0.9764705882352941" d="M 213.5 179 L 215 181.5 L 214 181.5 L 213.5 179 Z " /><path fill="rgb(19,20,22)" stroke="rgb(19,20,22)" stroke-width="1" opacity="0.9764705882352941" d="M 464.5 179 L 466 182 L 468 182.5 L 466.5 183 L 464.5 179 Z " /><path fill="rgb(19,20,22)" stroke="rgb(19,20,22)" stroke-width="1" opacity="0.9764705882352941" d="M 471.5 187 L 473.5 190 L 471.5 187 Z " /><path fill="rgb(19,20,22)" stroke="rgb(19,20,22)" stroke-width="1" opacity="0.9764705882352941" d="M 210 189 Q 213.3 187.9 212 192 Q 208.7 193.1 210 189 Z " /><path fill="rgb(19,20,22)" stroke="rgb(19,20,22)" stroke-width="1" opacity="0.9764705882352941" d="M 210 193 Q 213 192 212 195 Q 209 196 210 193 Z " /><path fill="rgb(19,20,22)" stroke="rgb(19,20,22)" stroke-width="1" opacity="0.9764705882352941" d="M 258 195 L 264 196 L 265 207.5 Q 263.6 210.3 259 209 L 258 202 L 253 200.5 L 257 200 L 258 195 Z " /><path fill="rgb(19,20,22)" stroke="rgb(19,20,22)" stroke-width="1" opacity="0.9764705882352941" d="M 211 197 Q 213.7 195.9 213 198.5 L 213 200.5 Q 214.1 203.8 211.5 203 L 212 201.5 L 211 197 Z " /><path fill="rgb(19,20,22)" stroke="rgb(19,20,22)" stroke-width="1" opacity="0.9764705882352941" d="M 478.5 199 L 479 200.5 Q 477.8 203.3 476.5 201 L 475 200.5 L 478.5 199 Z " /><path fill="rgb(19,20,22)" stroke="rgb(19,20,22)" stroke-width="1" opacity="0.9764705882352941" d="M 483.5 208 L 486 209 Q 487.1 211.7 484.5 211 L 482 209.5 L 483.5 208 Z " /><path fill="rgb(19,20,22)" stroke="rgb(19,20,22)" stroke-width="1" opacity="0.9764705882352941" d="M 259.5 210 L 264 211 L 265 218.5 L 260.5 227 L 258 226.5 L 260 219.5 Q 258.5 216 253 216.5 L 258 215 Q 257 211.2 259.5 210 Z " /><path fill="rgb(19,20,22)" stroke="rgb(19,20,22)" stroke-width="1" opacity="0.9764705882352941" d="M 211 212 L 214 213.5 Q 214.8 217.3 212.5 218 L 211 217.5 L 213 216.5 L 211 216 L 211 212 Z " /><path fill="rgb(19,20,22)" stroke="rgb(19,20,22)" stroke-width="1" opacity="0.9764705882352941" d="M 255.5 228 Q 260.9 226.1 260 229.5 L 258 239.5 L 259 241.5 L 258 243.5 L 259 245.5 L 259 247.5 L 259 318.5 L 260 319.5 L 259 323.5 L 259 325.5 L 260 327.5 L 260 394.5 L 261 395.5 L 260 397.5 Q 262.8 399.3 261 405.5 L 261 407.5 L 261 443.5 Q 263.5 445 262 450.5 L 262 452.5 L 261 454.5 L 262 455.5 L 263 525.5 L 264 526.5 L 264 579.5 L 265 580.5 L 264 583.5 L 265 585.5 L 264 587.5 L 265 590.5 L 262.5 592 L 262 589.5 L 262 578.5 L 263 577.5 L 262 576.5 L 262 563.5 L 261 562.5 L 261 531.5 L 260 530.5 L 261 528.5 L 261 526.5 Q 258.3 520.3 260 509.5 L 261 507.5 L 260 506.5 L 260 490.5 L 259 489.5 Q 261.5 488 260 482.5 L 259 481.5 L 258 402.5 L 257 401.5 L 256 372.5 L 255 370.5 L 255 368.5 L 256 364.5 Q 253.5 363 255 357.5 L 256 353.5 L 254 348.5 L 256 348.5 L 254 345.5 Q 255.5 340 253 338.5 L 252 309.5 L 253 304 Q 250 305.3 251 301.5 L 252 298.5 L 251 297.5 L 251 281.5 L 250 279.5 L 250 277.5 L 251 272.5 Q 248.5 271 250 265.5 L 252 258.5 L 252 256.5 L 251 250.5 L 253 249.5 L 252 251.5 L 254.5 255 L 256 249.5 L 256 247.5 L 256 229.5 L 255.5 228 Z M 253 262 L 252 266 L 253 266 L 253 262 Z M 258 323 L 257 326 L 258 326 L 258 323 Z " /><path fill="rgb(19,20,22)" stroke="rgb(19,20,22)" stroke-width="1" opacity="0.9764705882352941" d="M 215.5 230 Q 217.8 229.3 217 231.5 L 218 235.5 L 218 237.5 L 217 242.5 Q 219.7 244.2 218 250.5 L 216.5 253 L 216 248.5 L 217 245.5 L 216 244.5 L 216 233.5 L 215 232.5 L 215.5 230 Z " /><path fill="rgb(19,20,22)" stroke="rgb(19,20,22)" stroke-width="1" opacity="0.9764705882352941" d="M 216.5 256 L 218 260.5 L 216 261 L 216.5 256 Z " /><path fill="rgb(19,20,22)" stroke="rgb(19,20,22)" stroke-width="1" opacity="0.9764705882352941" d="M 216.5 266 L 218 270.5 L 216.5 273 L 216.5 266 Z " /><path fill="rgb(19,20,22)" stroke="rgb(19,20,22)" stroke-width="1" opacity="0.9764705882352941" d="M 217.5 275 L 218 285.5 L 219 286.5 L 219 326.5 L 220 327.5 Q 217.5 329 219 334.5 L 220 335.5 L 220 395.5 L 221 397.5 Q 218.5 399 220 404.5 L 221 409.5 L 220 411.5 L 221 412.5 L 221 425.5 L 220 427.5 L 221 430.5 L 220 432.5 L 221 434.5 L 221 436.5 L 221 448.5 L 220 449.5 L 221 452.5 L 221 454.5 L 220 459.5 L 221 462.5 L 220 465.5 Q 218.7 473.8 221 478.5 L 220 481.5 L 220 483.5 L 221 490.5 L 220 491.5 L 220 511.5 L 221 515.5 L 221 517.5 L 221 554.5 L 219.5 557 L 219 463.5 L 218 462.5 L 218 448.5 L 219 445.5 L 218 444.5 L 218 415.5 L 219 412.5 L 218 411.5 L 218 359.5 L 217 358.5 L 218 355.5 L 217 354.5 L 217 331.5 L 217 329.5 L 217 292.5 L 216 288.5 L 217 284.5 L 216 280.5 L 217.5 275 Z " /><path fill="rgb(19,20,22)" stroke="rgb(19,20,22)" stroke-width="1" opacity="0.9764705882352941" d="M 238.5 300 L 240 307.5 L 241 396.5 L 242 397.5 L 242 483.5 L 241 483.5 L 240 401.5 L 239 400.5 L 239 319.5 L 238 318.5 L 238.5 300 Z " /><path fill="rgb(19,20,22)" stroke="rgb(19,20,22)" stroke-width="1" opacity="0.9764705882352941" d="M 219.5 558 L 221 562.5 L 220 565.5 L 221 567.5 Q 218.7 568.8 220 573.5 L 221 574.5 L 221 589 Q 217 590.4 219 583.5 L 219 581.5 L 219 568.5 L 220 567.5 L 219 566.5 L 219.5 558 Z " /><path fill="rgb(19,20,22)" stroke="rgb(19,20,22)" stroke-width="1" opacity="0.9764705882352941" d="M 219.5 590 L 221 593.5 L 219 592.5 L 219.5 590 Z " /><path fill="rgb(208,207,208)" stroke="rgb(208,207,208)" stroke-width="1" opacity="0.8862745098039215" d="M 173.5 26 L 249.5 26 L 253.5 28 L 262.5 28 Q 269 31 278.5 31 L 291.5 36 L 295.5 36 Q 297.7 39.7 304.5 39 L 314.5 45 L 317.5 45 L 336.5 56 Q 357.8 69.2 375 86.5 Q 374.3 89.1 377 88 L 377 90 L 378.5 90 L 381 91 Q 379.9 93.7 382.5 93 L 387.5 99 L 392 101 L 392 103 Q 394.7 101.9 394 104.5 L 400 109 Q 398.9 111.7 401.5 111 L 405.5 116 L 408 117.5 Q 407.3 119.8 409.5 119 L 412.5 123 L 416 125.5 Q 415.3 127.8 417.5 127 L 421.5 132 L 424 133.5 Q 423.3 135.8 425.5 135 L 429.5 140 L 432 141.5 Q 431.3 143.8 433.5 143 L 438.5 149 L 441.5 151 L 443 154 L 446 155.5 L 446 157 L 448 157 Q 446.9 159.7 449.5 159 L 458.5 169 Q 460.8 168.3 460 170.5 L 461 173 L 466 176.5 Q 465.5 180.5 468.5 181 L 472 183.5 Q 471.5 188.5 475.5 189 L 479 191.5 L 478.5 193 Q 480.8 192.3 480 194.5 L 488 207.5 L 488 211.5 Q 487.3 214.8 482.5 214 L 468.5 209 L 458 201 L 456.5 198 L 454 198 Q 455.1 195.3 452.5 196 L 450 195 L 450 193 Q 447.3 194.1 448 191.5 L 442.5 187 L 440 187 L 438.5 184 Q 435.2 185.1 436 182.5 L 427.5 176 L 425 176 Q 426.1 173.3 423.5 174 L 413.5 166 L 411 166 Q 412.1 163.3 409.5 164 L 397 157 L 395.5 154 L 388.5 151 L 384.5 147 L 371.5 142 L 340.5 125 L 324.5 121 L 313.5 121 L 304 127.5 L 297 141.5 L 297 143.5 L 295 152.5 L 289 168.5 L 287 170.5 L 285 180.5 L 280.5 186 L 274 188 L 273 203.5 Q 275.8 205.2 274 211.5 Q 271.8 212.7 273 217.5 L 274 218.5 L 274 226.5 L 271.5 230 L 269 231.5 L 270 318.5 L 269 319.5 L 269 350.5 L 270 351.5 L 271 432.5 L 272 433.5 L 272 460.5 L 273 461.5 L 273 523.5 L 274 524.5 L 274 548.5 L 275 549.5 L 275 587.5 L 276.5 589 L 286.5 591 L 291 594.5 Q 289.8 599.2 292 600.5 L 291 605.5 L 292 606.5 L 293 621.5 L 297 642.5 L 296 644.5 L 299 658.5 L 298 659.5 L 298 672 Q 294.3 670.6 296 676.5 Q 298.5 678 297 683.5 L 296 683.5 L 295 672.5 L 296 671.5 L 296 647.5 L 294 639.5 L 294 630.5 L 291 615.5 L 290 600.5 Q 287.7 599.2 289 594.5 L 287.5 593 L 274.5 592 L 272.5 590 L 270.5 591 L 268.5 591 L 267 590.5 L 267 588.5 L 268 584.5 L 267 583.5 L 267 563.5 L 266 559.5 L 266 557.5 L 267 554.5 L 266 551.5 L 266 549.5 L 265 489.5 L 264 488.5 L 264 431.5 L 263 430.5 L 264 427.5 L 263 425.5 L 264 421.5 L 263 417.5 L 264 415.5 L 263 413.5 L 263 411.5 L 264 409.5 L 264 407.5 L 263 402.5 L 263 400.5 L 264 398.5 L 262 394.5 L 263 391.5 L 263 389.5 Q 264.3 384.8 262 383.5 L 263 381.5 Q 260.7 380.3 262 375.5 L 262 373.5 L 263 367.5 L 262 365.5 L 263 360.5 L 262 358.5 L 263 356.5 L 262 354.5 L 263 351.5 L 262 350.5 L 262 336.5 L 261 335.5 L 262 332.5 L 261 327.5 L 262 325.5 Q 259.5 324 261 318.5 L 261 316.5 L 261 273.5 L 260 271.5 L 261 267.5 L 260 265.5 L 261 263.5 L 260 261.5 Q 262.3 260.3 261 255.5 L 260 254.5 L 260 244.5 L 261 242.5 L 260 240.5 L 262.5 237 L 265 238 L 265 231.5 L 263.5 231 Q 262.3 233.3 261 230.5 Q 260.2 227.9 263.5 229 L 265.5 231 L 269 227.5 L 266 225.5 L 267.5 226 L 271 224.5 L 272 219.5 L 270 213.5 L 272 209.5 L 271 208.5 L 270 195.5 L 272 187.5 L 272 185.5 L 272.5 184 Q 273.8 186.2 278.5 185 L 282 183 L 285 169.5 L 289 163.5 L 298 134.5 Q 300.6 127.1 306.5 123 L 313.5 119 L 324.5 118 Q 329.2 121.8 337.5 122 L 381.5 144 L 383 143.5 Q 380.8 144.8 383.5 146 L 396.5 153 L 400.5 157 L 408.5 161 L 433.5 180 L 446 187.5 L 446.5 189 L 448.5 186 L 448 187.5 L 447 189.5 L 461 199 Q 459.9 201.7 462.5 201 L 466 203.5 Q 465.3 205.8 467.5 205 L 471.5 208 L 485.5 212 L 487 209.5 L 485 205 L 482.5 206 L 480 202.5 Q 480.8 196.2 478 193.5 L 457.5 170 L 456 170 L 456 168 Q 453.3 169.1 454 166.5 L 403.5 115 L 400.5 113 Q 373.8 85.2 342.5 62 L 324.5 51 L 302.5 41 L 287.5 36 L 258.5 30 L 233.5 29 L 232.5 28 L 198.5 28 L 197.5 29 L 172.5 29 L 168.5 30 Q 154.3 44.8 134.5 54 L 119.5 58 L 99.5 58 L 85.5 54 L 70.5 45 L 60.5 44 L 58.5 44 L 29.5 46 L 24.5 47 L 22 49.5 L 14 64.5 L 13 69.5 L 13 94.5 Q 17 95.9 16 101 Q 18.7 102.1 18 99.5 L 17 96.5 L 18 92 L 20.5 93 L 21.5 90 L 22 92 Q 24.7 93.1 24 90.5 L 23.5 89 L 26.5 93 L 35.5 93 L 36 91.5 Q 32.3 89.7 35.5 88 L 39.5 90 Q 42.3 88.7 40 87.5 L 40.5 86 L 42.5 87 L 44 86.5 L 43 93 Q 46.3 94.3 45 89.5 L 48 88.5 L 49.5 86 Q 52.1 85.3 51 88 L 53 88 L 53 93.5 L 54.5 94 L 57 93 L 60.5 102 L 62.5 101 L 65.5 103 L 66 101 L 68.5 102 L 73.5 101 L 80.5 100 L 84.5 100 L 86.5 99 L 88 99.5 L 88.5 98 L 91.5 100 L 96.5 98 L 98.5 99 L 100.5 96 L 104.5 98 L 107 97 L 106 93.5 L 107 93.5 Q 106.3 96.1 109 95 L 109.5 91 L 110 94.5 L 109 97 L 111.5 96 L 114.5 97 L 115 94.5 L 116.5 82 L 117.5 87 L 119 86.5 L 118 90.5 L 120 90.5 L 121.5 93 L 122 83 L 124.5 84 L 126 83.5 L 128.5 89 L 129 79.5 L 130.5 78 L 131 89 Q 134.7 90.3 133 84.5 L 135 79.5 L 134.5 78 L 136.5 79 L 144 75 L 145.5 70 L 147.5 71 L 149 70.5 L 148 73 Q 150.7 71.9 150 74.5 L 149 79.5 L 150.5 82 Q 152.7 77.8 155 79.5 L 155.5 75 Q 158.3 76.4 157 81 L 160 81.5 L 157 82 L 156.5 84 L 154.5 81 L 153.5 84 L 152.5 81 L 152 87 Q 149 88.3 150 84.5 L 149 84.5 L 148 93 Q 152.1 94.7 151 90.5 L 152 90.5 Q 151.3 93.1 154 92 Q 153 89 156 90 L 156.5 92 Q 157.5 89 162.5 90 L 167.5 91 L 170 89.5 Q 169.3 91.8 171.5 91 L 173.5 90 L 176.5 91 L 180 92 L 181.5 88 L 182 90 L 186 92 L 186.5 90 L 189 90.5 L 189.5 92 L 190.5 89 L 191.5 94 L 192.5 91 Q 194.8 94.2 201.5 93 L 204.5 92 L 206.5 93 L 204.5 90 L 203 89.5 L 204.5 89 L 209 91.5 L 208 93.5 L 210 92.5 Q 209.1 89.5 213.5 91 L 213.5 92 L 210 93.5 L 211.5 94 L 213.5 93 L 215 93.5 L 216 91.5 L 215.5 90 L 217.5 94 L 221.5 93 L 224.5 94 L 226.5 95 L 227 93 L 231.5 95 L 231.5 93 L 237.5 97 L 240.5 95 L 244 96 L 245.5 93 L 246.5 97 L 247.5 95 L 250.5 97 L 252.5 94 L 254 94.5 L 254.5 93 L 255 94.5 L 254 96.5 L 255.5 96 L 258.5 97 L 263 95 L 263.5 97 L 266.5 96 L 268 96.5 L 268.5 95 L 269.5 97 L 270.5 95 L 274 95.5 L 272 92.5 L 273.5 93 L 283.5 96 L 283 94.5 L 282 85.5 L 283 85.5 L 285 90.5 L 284 92.5 L 286.5 96 L 288 95.5 L 287 93.5 L 288 93.5 Q 287.2 96.1 290.5 95 L 295.5 93 L 297.5 94 L 301.5 92 L 307.5 91 Q 309 93.5 310.5 90 L 318.5 92 L 319.5 90 L 322.5 91 L 326.5 90 L 330 91.5 Q 329.3 93.8 331.5 93 L 333.5 92 L 335.5 93 L 337 92.5 L 338.5 95 Q 339.8 92.8 341 95.5 L 342.5 98 L 344 97.5 L 344.5 100 Q 345.7 97.8 347 100.5 L 347.5 102 Q 349.2 99.3 351 103.5 L 351.5 105 L 353 104.5 L 353.5 106 L 354.5 104 L 356.5 107 L 358 106.5 L 358.5 110 Q 360 107.5 361.5 111 Q 363.8 110.3 363 112.5 L 364.5 112 Q 367.1 111.3 366 114 L 368 114 L 368 116 L 371 116 Q 369.8 119 373.5 118 L 377 120.5 L 377.5 122 L 379 121.5 L 379.5 124 L 381 123.5 L 381 125 L 384 125 Q 382.9 127.7 385.5 127 L 392 132.5 L 393.5 135 L 395 134.5 Q 394.3 137.1 397 136 L 397.5 134 L 398 137.5 L 397.5 139 Q 399.8 139.8 399 137.5 L 400 137.5 L 399 140.5 L 401 141 L 401.5 143 L 403.5 137 L 405 147 L 407.5 148 L 408.5 146 L 409.5 151 L 411 150.5 Q 408.3 152.3 412.5 154 L 413 152.5 L 412.5 151 Q 416.3 149.8 415 153.5 L 414 155.5 L 415 158 L 421 157 L 420 159.5 L 421.5 160 L 423 159.5 Q 418.8 161.7 423.5 164 L 426.5 162 L 428 161.5 L 426.5 166 L 424.5 166 L 420.5 162 L 418.5 162 L 397.5 149 L 384.5 139 L 351.5 121 L 329.5 112 L 320.5 111 L 315.5 109 L 303.5 109 L 297 112 L 295.5 115 L 292 116 L 286 127.5 L 286 131.5 L 281 142.5 L 257.5 176 L 245.5 181 L 228.5 183 L 226.5 182 L 224.5 182 Q 215.2 183.3 213 177.5 L 188 136.5 L 162.5 109 L 146.5 98 L 136.5 98 L 132.5 100 L 123.5 101 L 119.5 103 L 113.5 103 L 104.5 106 L 101.5 105 L 94.5 108 L 92 107 L 91.5 109 L 89.5 108 L 82.5 110 L 80.5 109 L 78 110 Q 79.3 113 75.5 112 L 68.5 114 L 65 113.5 L 64.5 115 L 64 113 L 61.5 112 L 61 114 L 53.5 115 L 51.5 115 L 48 114 L 47.5 116 L 43.5 114 L 40.5 115 L 38.5 115 L 31.5 114 L 27.5 116 L 26.5 115 L 19 115 L 19 129.5 L 18 130.5 L 19.5 133 L 18 133.5 Q 20.6 144.9 27.5 152 L 33.5 154 L 61.5 154 L 62.5 153 L 80.5 152 L 101.5 137 L 117.5 131 L 141.5 130 L 162.5 137 L 178 147 L 178 149 Q 180.7 147.9 180 150.5 L 192 165.5 L 201 183.5 Q 198.5 185 202 186.5 L 203.5 192 L 206.5 190 L 208 191.5 Q 206.8 196.3 209 197.5 L 206 199.5 L 204 203.5 L 206 207.5 L 206 209.5 Q 206.7 212.1 204 211 L 204 214 L 209.5 212 L 209 213.5 Q 210.1 216.8 207.5 216 L 204 218.5 Q 205.2 221 209 220 L 211 229 Q 206.9 227.7 208 231 L 213.5 230 L 215 232.5 L 214 233.5 L 214 248.5 L 214 250.5 L 215 265.5 L 215 267.5 L 215 286.5 L 216 287.5 L 216 353.5 L 217 355.5 L 216 357.5 L 217 361.5 L 217 363.5 L 216 367.5 L 217 368.5 L 217 448.5 L 218 449.5 L 217 451.5 Q 219.3 452.7 218 457.5 L 217 462.5 L 217 464.5 L 218 468.5 L 218 470.5 L 217 477.5 L 218 479.5 L 217 481.5 Q 219.5 483 218 488.5 L 218 490.5 L 218 517.5 L 217 518.5 L 218 519.5 L 218 533.5 L 218 535.5 L 217 539.5 L 218 541.5 L 217 544.5 L 218 551.5 L 217 553.5 L 218 554.5 L 218 566.5 L 218 568.5 L 218 593.5 Q 217.8 594.8 211.5 594 Q 209.8 596.8 204.5 596 L 204.5 595 Q 207.8 596.1 207 593.5 L 210 590.5 L 210 511.5 L 209 510.5 L 208 303.5 L 207 302.5 L 207 266.5 L 206 263.5 L 206 261.5 L 207 257.5 L 206 256.5 L 206 233.5 L 202 228.5 L 201 217.5 L 202 215.5 L 201 214.5 L 200 187.5 L 188 163.5 L 173.5 146 Q 165.7 139.3 154.5 136 L 147.5 134 L 131.5 134 L 128.5 133 L 126.5 133 L 119.5 135 L 117.5 134 L 98.5 141 L 79.5 154 L 62.5 155 L 61.5 156 L 59.5 155 L 56.5 156 L 55.5 155 L 32.5 155 L 30.5 155 L 24 150.5 L 16 136.5 L 16 132.5 L 13 124.5 L 13 122.5 Q 14.3 113.2 11 108.5 L 12 105.5 L 10 97.5 L 11 96.5 L 11 87.5 Q 8.8 86.2 10 81.5 Q 12.8 79.8 11 73.5 L 10 71.5 Q 13.5 68 13 60.5 L 17 52.5 L 23.5 45 L 29.5 43 L 31.5 44 L 32.5 43 L 53.5 43 L 55.5 42 Q 57.2 44.8 63.5 43 L 66.5 42 L 74.5 45 L 87.5 53 L 103.5 57 L 105.5 56 L 108.5 57 L 110.5 57 L 128.5 54 Q 151.1 44.6 166.5 28 L 173.5 26 Z M 147 74 L 146 79 L 148 78 L 147 74 Z M 147 81 L 146 84 L 147 84 L 147 81 Z M 136 83 L 135 88 L 136 88 L 136 83 Z M 51 89 L 51 93 L 51 92 Q 53 90 51 89 Z M 147 89 L 146 93 L 147 93 L 147 89 Z M 144 91 L 143 95 L 144 95 L 144 91 Z M 34 95 L 34 98 L 36 97 Q 37 94 34 95 Z M 205 192 L 204 195 L 205 195 L 205 192 Z " /><path fill="rgb(208,207,208)" stroke="rgb(208,207,208)" stroke-width="1" opacity="0.8862745098039215" d="M 192.5 44 L 196 44.5 Q 194.8 47.3 193.5 45 L 192.5 44 Z " /><path fill="rgb(208,207,208)" stroke="rgb(208,207,208)" stroke-width="1" opacity="0.8862745098039215" d="M 188.5 58 L 190 63.5 Q 188.5 66.5 187 63.5 Q 186 59 188.5 58 Z " /><path fill="rgb(208,207,208)" stroke="rgb(208,207,208)" stroke-width="1" opacity="0.8862745098039215" d="M 167.5 61 L 168 63.5 L 167 63.5 L 167.5 61 Z " /><path fill="rgb(208,207,208)" stroke="rgb(208,207,208)" stroke-width="1" opacity="0.8862745098039215" d="M 222.5 61 Q 225.5 64 224 71.5 L 226 73.5 L 223.5 74 L 218.5 77 L 215 71.5 L 217.5 73 L 220.5 74 L 221.5 71 L 223 71.5 Q 223.5 64 222.5 61 Z " /><path fill="rgb(208,207,208)" stroke="rgb(208,207,208)" stroke-width="1" opacity="0.8862745098039215" d="M 244.5 63 L 245 69.5 L 244 69.5 L 244.5 63 Z " /><path fill="rgb(208,207,208)" stroke="rgb(208,207,208)" stroke-width="1" opacity="0.8862745098039215" d="M 180.5 64 L 183.5 71 Q 185.3 67.3 187 70.5 Q 184.3 72.2 186 78.5 L 184.5 80 L 183 79.5 L 183.5 78 Q 181.3 77.3 182 79.5 L 180.5 82 L 180 74 Q 176.3 72.7 178 78.5 L 177 78.5 L 177 75 Q 174 76.3 175 72.5 Q 172.7 71.3 175.5 70 L 177.5 74 L 180 69.5 L 180.5 64 Z " /><path fill="rgb(208,207,208)" stroke="rgb(208,207,208)" stroke-width="1" opacity="0.8862745098039215" d="M 200.5 66 L 201 68 L 204 68 Q 203 65 206 66 L 205 69.5 Q 207.5 71 204 72.5 L 203 77.5 L 204 81.5 L 202.5 88 Q 199.8 86.8 202 85.5 L 203 81.5 L 201 81 L 200.5 84 L 200 80.5 L 201 78.5 L 200 77.5 L 200.5 66 Z M 201 70 L 201 73 L 203 74 L 202 72 L 204 72 Q 205 68 201 70 Z " /><path fill="rgb(208,207,208)" stroke="rgb(208,207,208)" stroke-width="1" opacity="0.8862745098039215" d="M 188 68 L 190 68.5 L 190 75.5 L 191 79.5 L 188 86.5 L 189 88.5 L 188 88.5 Q 185.5 85 187 77.5 L 189 70.5 L 188 68 Z " /><path fill="rgb(208,207,208)" stroke="rgb(208,207,208)" stroke-width="1" opacity="0.8862745098039215" d="M 228.5 68 L 230 72.5 L 229.5 74 L 231.5 73 L 232 76.5 L 229.5 75 L 227 73.5 L 229 72.5 L 227 71.5 L 228.5 68 Z " /><path fill="rgb(208,207,208)" stroke="rgb(208,207,208)" stroke-width="1" opacity="0.8862745098039215" d="M 252.5 68 L 253 70.5 L 252 70.5 L 252.5 68 Z " /><path fill="rgb(208,207,208)" stroke="rgb(208,207,208)" stroke-width="1" opacity="0.8862745098039215" d="M 165.5 69 L 166 80.5 L 165 80.5 Q 165.7 77.9 163 79 L 161.5 85 L 161 80 L 158 78.5 L 158.5 76 L 159.5 78 Q 163 76.5 162.5 71 L 163.5 77 L 165.5 69 Z " /><path fill="rgb(208,207,208)" stroke="rgb(208,207,208)" stroke-width="1" opacity="0.8862745098039215" d="M 208.5 69 L 211 69.5 L 208.5 70 L 208.5 69 Z " /><path fill="rgb(208,207,208)" stroke="rgb(208,207,208)" stroke-width="1" opacity="0.8862745098039215" d="M 231.5 69 L 232 71.5 L 231 71.5 L 231.5 69 Z " /><path fill="rgb(208,207,208)" stroke="rgb(208,207,208)" stroke-width="1" opacity="0.8862745098039215" d="M 192.5 71 L 194 72.5 Q 192.5 78 195 79.5 L 194 82.5 L 195 85 Q 192.3 86.1 193 83.5 L 192 82.5 L 192.5 71 Z " /><path fill="rgb(208,207,208)" stroke="rgb(208,207,208)" stroke-width="1" opacity="0.8862745098039215" d="M 197.5 71 L 199 80.5 L 198 82.5 L 199 85.5 L 197 84.5 L 196 80.5 L 196 78.5 Q 195.1 73.1 197.5 71 Z " /><path fill="rgb(208,207,208)" stroke="rgb(208,207,208)" stroke-width="1" opacity="0.8862745098039215" d="M 250.5 71 L 252 72.5 L 252 88.5 L 251 88.5 L 251 79.5 L 250 78.5 L 251 75.5 L 250.5 71 Z " /><path fill="rgb(208,207,208)" stroke="rgb(208,207,208)" stroke-width="1" opacity="0.8862745098039215" d="M 298.5 71 L 299 81.5 L 298 81.5 L 298.5 71 Z " /><path fill="rgb(208,207,208)" stroke="rgb(208,207,208)" stroke-width="1" opacity="0.8862745098039215" d="M 208.5 72 L 211.5 73 L 213.5 73 L 215 73.5 L 215 75.5 Q 215.7 78.1 213 77 Q 214.5 73.3 211.5 74 L 208.5 73 L 208.5 72 Z " /><path fill="rgb(208,207,208)" stroke="rgb(208,207,208)" stroke-width="1" opacity="0.8862745098039215" d="M 244.5 72 L 245 74.5 L 244 74.5 L 244.5 72 Z " /><path fill="rgb(208,207,208)" stroke="rgb(208,207,208)" stroke-width="1" opacity="0.8862745098039215" d="M 167.5 73 L 168 77 Q 171.3 75.7 170 80.5 L 168 81.5 L 169 79.5 L 167 79.5 L 167.5 73 Z " /><path fill="rgb(208,207,208)" stroke="rgb(208,207,208)" stroke-width="1" opacity="0.8862745098039215" d="M 206.5 73 L 207 74.5 L 206 76.5 L 209.5 81 L 207 82.5 L 206.5 85 L 205 82 Q 208 83.3 207 79.5 Q 204.2 78.8 205 74.5 L 206.5 73 Z " /><path fill="rgb(208,207,208)" stroke="rgb(208,207,208)" stroke-width="1" opacity="0.8862745098039215" d="M 209.5 75 L 210.5 77 Q 207.7 77.7 209.5 75 Z " /><path fill="rgb(208,207,208)" stroke="rgb(208,207,208)" stroke-width="1" opacity="0.8862745098039215" d="M 239.5 75 L 241.5 76 L 243 75.5 Q 243.8 77.8 241.5 77 L 239.5 75 Z " /><path fill="rgb(208,207,208)" stroke="rgb(208,207,208)" stroke-width="1" opacity="0.8862745098039215" d="M 266 75 Q 269 74 268 77 Q 265 78 266 75 Z " /><path fill="rgb(208,207,208)" stroke="rgb(208,207,208)" stroke-width="1" opacity="0.8862745098039215" d="M 225 76 L 230 78.5 L 231 83.5 L 227.5 88 Q 224.9 88.7 226 86 Q 229.5 87.1 228 79.5 L 226.5 77 L 225 77.5 L 225 76 Z " /><path fill="rgb(208,207,208)" stroke="rgb(208,207,208)" stroke-width="1" opacity="0.8862745098039215" d="M 234.5 76 L 238 76.5 L 234.5 77 L 234.5 76 Z " /><path fill="rgb(208,207,208)" stroke="rgb(208,207,208)" stroke-width="1" opacity="0.8862745098039215" d="M 245.5 76 L 248 76.5 L 247.5 78 L 249 78.5 L 247.5 85 L 246 80.5 L 246 78.5 L 245.5 76 Z " /><path fill="rgb(208,207,208)" stroke="rgb(208,207,208)" stroke-width="1" opacity="0.8862745098039215" d="M 257.5 76 L 259.5 81 L 260 77 Q 263.5 75.9 262 83.5 L 258.5 88 L 257 87.5 L 258 85.5 L 257 84.5 L 257.5 76 Z " /><path fill="rgb(208,207,208)" stroke="rgb(208,207,208)" stroke-width="1" opacity="0.8862745098039215" d="M 239.5 77 L 241 79.5 Q 239.5 82.5 238 79.5 L 239.5 77 Z " /><path fill="rgb(208,207,208)" stroke="rgb(208,207,208)" stroke-width="1" opacity="0.8862745098039215" d="M 273.5 77 Q 276.5 77.5 276 81.5 L 274.5 84 Q 271.4 82.4 273.5 77 Z " /><path fill="rgb(208,207,208)" stroke="rgb(208,207,208)" stroke-width="1" opacity="0.8862745098039215" d="M 283.5 77 L 286 86.5 L 285 86.5 Q 281.9 82.9 283.5 77 Z " /><path fill="rgb(208,207,208)" stroke="rgb(208,207,208)" stroke-width="1" opacity="0.8862745098039215" d="M 175.5 78 L 175 79.5 L 174.5 81 L 174 79.5 L 175.5 78 Z " /><path fill="rgb(208,207,208)" stroke="rgb(208,207,208)" stroke-width="1" opacity="0.8862745098039215" d="M 220.5 78 L 222 83.5 L 221.5 85 L 225 87.5 L 222 87.5 L 222.5 86 L 220 84.5 L 219 82.5 L 221 82.5 L 220.5 78 Z " /><path fill="rgb(208,207,208)" stroke="rgb(208,207,208)" stroke-width="1" opacity="0.8862745098039215" d="M 232.5 78 Q 234.2 81.1 236 79.5 L 232.5 84 L 233 82.5 L 234 80.5 L 232 80 L 232.5 78 Z " /><path fill="rgb(208,207,208)" stroke="rgb(208,207,208)" stroke-width="1" opacity="0.8862745098039215" d="M 244.5 78 L 244 79.5 L 244 82 Q 247 80.8 246 84.5 L 245 84.5 Q 245.9 81.5 241.5 83 L 241.5 82 Q 244.1 82.8 243 79.5 L 244.5 78 Z " /><path fill="rgb(208,207,208)" stroke="rgb(208,207,208)" stroke-width="1" opacity="0.8862745098039215" d="M 211.5 79 L 216 82.5 L 215 88 L 213 87.5 L 213 85.5 Q 213.6 80 211.5 79 Z M 215 82 L 214 86 L 215 86 L 215 82 Z " /><path fill="rgb(208,207,208)" stroke="rgb(208,207,208)" stroke-width="1" opacity="0.8862745098039215" d="M 216.5 79 Q 218.8 78.3 218 80.5 L 216.5 79 Z " /><path fill="rgb(208,207,208)" stroke="rgb(208,207,208)" stroke-width="1" opacity="0.8862745098039215" d="M 266 79 Q 269.7 77.8 268 83 Q 264.3 84.2 266 79 Z " /><path fill="rgb(208,207,208)" stroke="rgb(208,207,208)" stroke-width="1" opacity="0.8862745098039215" d="M 270.5 79 L 271 81.5 L 270 81.5 L 270.5 79 Z " /><path fill="rgb(208,207,208)" stroke="rgb(208,207,208)" stroke-width="1" opacity="0.8862745098039215" d="M 278.5 79 L 279 81.5 L 278 81.5 L 278.5 79 Z " /><path fill="rgb(208,207,208)" stroke="rgb(208,207,208)" stroke-width="1" opacity="0.8862745098039215" d="M 294.5 79 L 296 81.5 L 294 80.5 L 294.5 79 Z " /><path fill="rgb(208,207,208)" stroke="rgb(208,207,208)" stroke-width="1" opacity="0.8862745098039215" d="M 301.5 79 L 302 81.5 L 301 81.5 L 301.5 79 Z " /><path fill="rgb(208,207,208)" stroke="rgb(208,207,208)" stroke-width="1" opacity="0.8862745098039215" d="M 308 79 Q 311.7 77.7 310 83.5 L 309 83.5 L 308 79 Z " /><path fill="rgb(208,207,208)" stroke="rgb(208,207,208)" stroke-width="1" opacity="0.8862745098039215" d="M 317.5 79 L 318 81.5 L 317 81.5 L 317.5 79 Z " /><path fill="rgb(208,207,208)" stroke="rgb(208,207,208)" stroke-width="1" opacity="0.8862745098039215" d="M 224 80 Q 227.7 78.8 226 84 L 224 83.5 L 224 81.5 L 224 80 Z " /><path fill="rgb(208,207,208)" stroke="rgb(208,207,208)" stroke-width="1" opacity="0.8862745098039215" d="M 253.5 81 L 254 84.5 L 253 84.5 L 253.5 81 Z " /><path fill="rgb(208,207,208)" stroke="rgb(208,207,208)" stroke-width="1" opacity="0.8862745098039215" d="M 255.5 81 L 256 84.5 L 255 84.5 L 255.5 81 Z " /><path fill="rgb(208,207,208)" stroke="rgb(208,207,208)" stroke-width="1" opacity="0.8862745098039215" d="M 263.5 81 L 264 83.5 L 263 83.5 L 263.5 81 Z " /><path fill="rgb(208,207,208)" stroke="rgb(208,207,208)" stroke-width="1" opacity="0.8862745098039215" d="M 287.5 81 L 288 86.5 L 287 86.5 L 287.5 81 Z " /><path fill="rgb(208,207,208)" stroke="rgb(208,207,208)" stroke-width="1" opacity="0.8862745098039215" d="M 210.5 82 L 212 84.5 Q 210.5 87.5 209 84.5 L 210.5 82 Z " /><path fill="rgb(208,207,208)" stroke="rgb(208,207,208)" stroke-width="1" opacity="0.8862745098039215" d="M 235.5 84 L 238 84.5 L 236.5 87 L 234 86.5 L 235.5 84 Z " /><path fill="rgb(208,207,208)" stroke="rgb(208,207,208)" stroke-width="1" opacity="0.8862745098039215" d="M 249.5 84 L 250 86.5 L 249 86.5 L 249.5 84 Z " /><path fill="rgb(208,207,208)" stroke="rgb(208,207,208)" stroke-width="1" opacity="0.8862745098039215" d="M 277.5 84 L 278 86.5 L 277 86.5 L 277.5 84 Z " /><path fill="rgb(208,207,208)" stroke="rgb(208,207,208)" stroke-width="1" opacity="0.8862745098039215" d="M 240.5 85 L 244 86.5 L 241.5 87 L 238 86.5 L 240.5 85 Z " /><path fill="rgb(208,207,208)" stroke="rgb(208,207,208)" stroke-width="1" opacity="0.8862745098039215" d="M 205.5 86 L 209.5 88 L 212 88.5 L 209.5 89 L 207.5 89 L 205.5 86 Z " /><path fill="rgb(208,207,208)" stroke="rgb(208,207,208)" stroke-width="1" opacity="0.8862745098039215" d="M 338.5 86 L 339 88.5 L 338 88.5 L 338.5 86 Z " /><path fill="rgb(208,207,208)" stroke="rgb(208,207,208)" stroke-width="1" opacity="0.8862745098039215" d="M 231.5 87 L 231 88.5 Q 231.8 90.8 229.5 90 L 231.5 87 Z " /><path fill="rgb(208,207,208)" stroke="rgb(208,207,208)" stroke-width="1" opacity="0.8862745098039215" d="M 365.5 100 L 366 102.5 L 365 102.5 L 365.5 100 Z " /><path fill="rgb(208,207,208)" stroke="rgb(208,207,208)" stroke-width="1" opacity="0.8862745098039215" d="M 364 104 Q 367 103 366 106 Q 363 107 364 104 Z " /><path fill="rgb(208,207,208)" stroke="rgb(208,207,208)" stroke-width="1" opacity="0.8862745098039215" d="M 418.5 148 L 419 150.5 L 418 150.5 L 418.5 148 Z " /><path fill="rgb(208,207,208)" stroke="rgb(208,207,208)" stroke-width="1" opacity="0.8862745098039215" d="M 428.5 165 Q 431.1 164.2 430 167.5 L 431.5 167 Q 436.5 166.5 437 170.5 Q 438.1 173.8 435.5 173 L 428 167.5 L 428.5 165 Z M 434 169 L 435 171 L 436 171 L 434 169 Z " /><path fill="rgb(208,207,208)" stroke="rgb(208,207,208)" stroke-width="1" opacity="0.8862745098039215" d="M 420.5 166 L 423 167.5 L 421.5 167 L 420.5 166 Z " /><path fill="rgb(208,207,208)" stroke="rgb(208,207,208)" stroke-width="1" opacity="0.8862745098039215" d="M 424.5 168 L 428 172.5 L 427 172.5 L 424.5 168 Z " /><path fill="rgb(208,207,208)" stroke="rgb(208,207,208)" stroke-width="1" opacity="0.8862745098039215" d="M 438.5 172 L 442.5 177 L 444 176.5 Q 441.7 175.3 444.5 174 L 444.5 176 L 446 176.5 L 445.5 178 L 448 178.5 L 447.5 180 Q 450.8 178.9 450 181.5 L 455 185.5 L 453.5 186 L 438 174.5 L 438.5 172 Z " /><path fill="rgb(208,207,208)" stroke="rgb(208,207,208)" stroke-width="1" opacity="0.8862745098039215" d="M 431.5 174 L 434 175.5 L 431 176 L 431.5 174 Z " /><path fill="rgb(208,207,208)" stroke="rgb(208,207,208)" stroke-width="1" opacity="0.8862745098039215" d="M 439.5 179 L 438.5 181 L 439.5 179 Z " /><path fill="rgb(208,207,208)" stroke="rgb(208,207,208)" stroke-width="1" opacity="0.8862745098039215" d="M 218.5 187 L 230.5 187 L 231 189.5 L 232 190.5 Q 228.9 192.3 230.5 194 Q 226.8 193 228 196 Q 231.7 194.5 231 197.5 L 229.5 201 L 214 200.5 L 214 198.5 L 214 196 L 219.5 196 L 219.5 195 L 213 195 L 213 190.5 L 214 188 L 218.5 187 Z " /><path fill="rgb(208,207,208)" stroke="rgb(208,207,208)" stroke-width="1" opacity="0.8862745098039215" d="M 244 187 L 251.5 188 L 254 187 L 253 189.5 L 256 193.5 L 252 194.5 L 256 195.5 L 254 196 L 254 200 L 243.5 200 L 244 198.5 Q 242.2 192.4 249.5 195 L 249.5 194 L 242.5 194 L 242 191.5 L 244 191.5 L 243 189.5 L 244 187 Z " /><path fill="rgb(208,207,208)" stroke="rgb(208,207,208)" stroke-width="1" opacity="0.8862745098039215" d="M 456.5 187 L 459 188.5 L 457.5 188 L 456.5 187 Z " /><path fill="rgb(208,207,208)" stroke="rgb(208,207,208)" stroke-width="1" opacity="0.8862745098039215" d="M 451.5 190 L 452.5 192 L 451.5 190 Z " /><path fill="rgb(208,207,208)" stroke="rgb(208,207,208)" stroke-width="1" opacity="0.8862745098039215" d="M 460.5 190 L 463 191.5 L 461.5 191 L 460.5 190 Z " /><path fill="rgb(208,207,208)" stroke="rgb(208,207,208)" stroke-width="1" opacity="0.8862745098039215" d="M 457.5 192 L 460 193.5 L 458.5 193 L 457.5 192 Z " /><path fill="rgb(208,207,208)" stroke="rgb(208,207,208)" stroke-width="1" opacity="0.8862745098039215" d="M 461.5 195 L 473.5 203 L 475.5 202 L 480 204 L 479.5 206 L 470 202 L 469.5 204 L 469 202.5 L 469.5 201 L 467.5 200 L 466 200.5 Q 468.3 199.3 465.5 198 Q 460.8 197.2 461.5 195 Z " /><path fill="rgb(208,207,208)" stroke="rgb(208,207,208)" stroke-width="1" opacity="0.8862745098039215" d="M 469.5 196 L 470.5 198 L 469.5 196 Z " /><path fill="rgb(208,207,208)" stroke="rgb(208,207,208)" stroke-width="1" opacity="0.8862745098039215" d="M 473.5 198 L 478 198.5 Q 476.7 201.3 475.5 199 Q 472.5 199.5 473.5 198 Z " /><path fill="rgb(208,207,208)" stroke="rgb(208,207,208)" stroke-width="1" opacity="0.8862745098039215" d="M 219.5 202 L 232 202.5 L 230 207.5 L 230.5 209 Q 228.3 208.3 229 210.5 Q 232.5 212 230 213.5 L 230 216 Q 224.8 214.3 226 218 Q 229.8 217 231 219.5 L 229.5 224 Q 231.8 223.3 231 225.5 L 231.5 227 L 227 227.5 L 237 230.5 Q 234.3 232.8 235 238.5 L 235 240.5 L 237 267.5 L 236 270.5 Q 238.3 271.8 237 276.5 L 235 276.5 L 236.5 287 L 237.5 284 L 238 350 L 236 350.5 L 238 351.5 L 236 352 L 235 355.5 L 237 357.5 L 238 366.5 L 237 369.5 L 238 371.5 Q 235.3 373.3 237 379.5 L 239 384.5 L 238 384.5 L 237.5 383 L 236 394.5 L 237 396.5 Q 234.7 397.7 236 402.5 L 237 403.5 L 237 420 L 239 420.5 L 237 421.5 L 238.5 424 L 237 423.5 L 238 429.5 L 237 430.5 L 237 460.5 L 238 462.5 L 237 463.5 L 237 485.5 L 238 486.5 L 238 514 L 235 515.5 L 236 517.5 L 236 519.5 L 235 525.5 L 235.5 527 L 234 527.5 L 236.5 532 L 238 531.5 L 237 535.5 Q 240.8 537.3 239 544.5 L 239 546.5 L 239 558.5 L 238 559.5 L 239 560.5 L 239 576.5 L 241 580.5 L 240 584.5 L 242.5 589 L 247 582.5 L 247 579 Q 250 580.3 249 576.5 L 250 575.5 L 250 567.5 L 248 560 L 250 559.5 L 250 540.5 L 248 534.5 L 249 529.5 L 248 525.5 L 249 521.5 L 248 519 Q 245.3 520.1 246 517.5 L 249 518.5 L 248 511.5 L 248 509.5 L 247 505.5 L 248 505.5 L 248.5 507 L 249 503 L 247 502.5 L 249 502 L 248 498.5 L 248 496.5 L 249 493.5 L 248 492.5 L 248 475.5 L 247 470.5 L 248 468.5 L 247 466.5 L 248 464.5 L 247 463.5 L 246 449.5 L 247 448.5 L 247 430.5 L 246 430.5 L 245.5 437 L 245 428 Q 248 429 247 426 Q 244 427 245 424 L 247 423.5 L 247 415.5 L 246 415.5 Q 246.7 418.1 244 417 Q 243.3 413.9 246 414.5 L 246 383.5 L 245 381.5 L 246 377.5 L 244 367.5 L 244 365.5 L 245 351 L 243 350.5 L 244 348.5 L 243 347.5 L 242.5 335 L 241.5 350 L 241 335.5 L 243 327.5 L 242 325.5 L 244 315 L 242 314.5 L 242 303.5 L 243 303.5 L 243.5 311 L 244 296.5 L 242 296.5 L 242 295 L 244 294.5 L 244 287.5 L 243 286.5 L 242 271.5 L 243 270.5 L 243 260 Q 240 261 241 258 L 243 257.5 L 243 229.5 L 246.5 229 L 251.5 228 Q 254 229 253 233.5 L 252 236 L 250 236 Q 251.1 233.3 248.5 234 L 249 232.5 L 248.5 229 L 246 232.5 L 247 233.5 L 247.5 243 L 249.5 242 L 249.5 243 Q 246.5 242.2 248 246 L 250 246.5 L 248 247.5 L 251 249.5 L 248 250.5 L 250 253.5 L 249.5 255 Q 251.8 254.3 251 256.5 L 250.5 259 Q 247.5 258.1 249 262.5 L 248 265.5 L 249 267.5 Q 246.8 268.8 248 273.5 L 249 274.5 L 249 286.5 L 250 287.5 Q 248.6 296.4 251 301.5 L 250 305 L 253 305.5 L 251 306 L 253 349.5 L 254 350.5 L 254 365.5 L 255 366.5 L 255 368.5 L 254 370.5 L 255 371.5 L 256 395.5 L 257 396.5 L 257 414.5 L 258 415.5 L 258 459.5 L 259 460.5 L 259 505.5 L 260 507.5 L 260 509.5 L 260 531.5 L 261 534.5 L 260 535.5 L 260 547.5 L 261 548.5 L 261 585.5 L 262 586.5 L 262 588.5 Q 263 593 260.5 594 L 257.5 593 L 256.5 595 L 255.5 594 L 241.5 594 L 233.5 596 L 224.5 596 L 222 595 L 221 589.5 L 222 588.5 L 222 574.5 Q 219.8 573.2 221 568.5 L 222 566.5 L 221 563.5 L 221 561.5 L 222 556.5 L 221 554.5 L 222 553.5 L 222 542.5 L 221 540.5 L 222 537.5 L 221 536.5 L 221 528.5 L 222 525.5 L 221 523.5 L 221 367.5 L 220 366.5 L 220 303.5 L 219 302.5 L 219 300.5 L 219 259.5 L 218 257.5 Q 220.7 255.7 219 249.5 L 218 247.5 L 219 244.5 L 218 243.5 L 218 233.5 L 218 231.5 L 219.5 229 L 226 228.5 L 215.5 228 L 213 225.5 L 212 219 L 224 217.5 L 215 216 L 215 211 L 217.5 211 L 217.5 210 L 213 210 L 213 203 L 219.5 202 Z M 251 231 L 250 233 L 252 234 L 251 231 Z M 248 252 Q 246 255 249 254 L 248 252 Z M 237 331 L 236 335 L 237 335 L 237 331 Z M 244 332 L 243 335 L 244 335 L 244 332 Z M 236 446 L 235 449 L 236 449 L 236 446 Z M 236 466 L 235 472 L 236 472 L 236 466 Z M 237 549 L 236 556 L 238 556 Q 239 551 237 549 Z " /><path fill="rgb(208,207,208)" stroke="rgb(208,207,208)" stroke-width="1" opacity="0.8862745098039215" d="M 244 202 L 254.5 202 L 255 203.5 L 256 206.5 L 257 208.5 L 253 209.5 L 257 210.5 L 254 212.5 L 255 214.5 L 244 215 L 244 210 L 248.5 210 L 248.5 209 Q 242.7 211.1 244 206.5 L 243 204.5 L 244 202 Z " /><path fill="rgb(208,207,208)" stroke="rgb(208,207,208)" stroke-width="1" opacity="0.8862745098039215" d="M 244 218 L 255.5 218 L 258 219 Q 259.8 225.1 256.5 227 Q 248 229 246 224.5 L 246 221.5 L 244 218 Z " /><path fill="rgb(208,207,208)" stroke="rgb(208,207,208)" stroke-width="1" opacity="0.8862745098039215" d="M 241.5 254 L 242 256.5 L 241 256.5 L 241.5 254 Z " /><path fill="rgb(208,207,208)" stroke="rgb(208,207,208)" stroke-width="1" opacity="0.8862745098039215" d="M 242.5 289 L 243 292.5 L 242 292.5 L 242.5 289 Z " /><path fill="rgb(208,207,208)" stroke="rgb(208,207,208)" stroke-width="1" opacity="0.8862745098039215" d="M 240.5 306 L 241 317.5 L 240 317.5 L 240.5 306 Z " /><path fill="rgb(208,207,208)" stroke="rgb(208,207,208)" stroke-width="1" opacity="0.8862745098039215" d="M 238.5 386 L 239 394.5 L 238 394.5 L 238.5 386 Z " /><path fill="rgb(208,207,208)" stroke="rgb(208,207,208)" stroke-width="1" opacity="0.8862745098039215" d="M 238.5 407 L 239 418.5 L 238 418.5 L 238.5 407 Z " /><path fill="rgb(208,207,208)" stroke="rgb(208,207,208)" stroke-width="1" opacity="0.8862745098039215" d="M 245.5 419 L 246 422.5 L 245 422.5 L 245.5 419 Z " /><path fill="rgb(208,207,208)" stroke="rgb(208,207,208)" stroke-width="1" opacity="0.8862745098039215" d="M 238.5 464 L 239 466.5 L 238 466.5 L 238.5 464 Z " /><path fill="rgb(208,207,208)" stroke="rgb(208,207,208)" stroke-width="1" opacity="0.8862745098039215" d="M 246.5 527 L 247 531.5 L 246 531.5 L 246.5 527 Z " /><path fill="rgb(208,207,208)" stroke="rgb(208,207,208)" stroke-width="1" opacity="0.8862745098039215" d="M 202.5 596 L 203 597.5 L 202 598.5 L 201.5 620 L 200 600.5 L 202.5 596 Z " /><path fill="rgb(208,207,208)" stroke="rgb(208,207,208)" stroke-width="1" opacity="0.8862745098039215" d="M 202.5 629 L 203 643.5 L 202 643.5 L 202.5 629 Z " /><path fill="rgb(208,207,208)" stroke="rgb(208,207,208)" stroke-width="1" opacity="0.8862745098039215" d="M 201.5 646 L 202 651.5 L 201 651.5 L 201.5 646 Z " /><path fill="rgb(208,207,208)" stroke="rgb(208,207,208)" stroke-width="1" opacity="0.8862745098039215" d="M 201.5 655 L 202 671.5 L 201 672.5 L 201 689.5 L 199 692.5 L 200 694.5 L 199 694.5 L 198 691.5 L 200 689.5 L 200 671.5 L 201 670.5 L 201.5 655 Z " /><path fill="rgb(208,207,208)" stroke="rgb(208,207,208)" stroke-width="1" opacity="0.8862745098039215" d="M 297.5 685 L 298 693.5 L 299 694.5 L 299 704.5 L 300 705.5 L 300 715.5 L 301 716.5 L 301 727.5 L 300 727.5 L 300 716.5 L 298 705.5 L 297.5 685 Z " /><path fill="rgb(208,207,208)" stroke="rgb(208,207,208)" stroke-width="1" opacity="0.8862745098039215" d="M 199.5 696 L 200 720.5 L 199 721.5 L 198.5 746 L 198 721.5 L 199 720.5 L 199.5 696 Z " /><path fill="rgb(208,207,208)" stroke="rgb(208,207,208)" stroke-width="1" opacity="0.8862745098039215" d="M 301.5 730 L 302 739.5 L 301 739.5 L 301.5 730 Z " /><path fill="rgb(208,207,208)" stroke="rgb(208,207,208)" stroke-width="1" opacity="0.8862745098039215" d="M 302.5 741 L 303 751.5 L 302 751.5 L 302.5 741 Z " /><path fill="rgb(208,207,208)" stroke="rgb(208,207,208)" stroke-width="1" opacity="0.8862745098039215" d="M 303.5 753 L 304 766.5 L 305 767.5 L 305 788.5 L 306 789.5 L 306 815.5 L 305 815.5 L 305 790.5 L 304 789.5 L 303.5 753 Z " /><path fill="rgb(208,207,208)" stroke="rgb(208,207,208)" stroke-width="1" opacity="0.8862745098039215" d="M 197.5 757 L 198 770.5 L 197 771.5 L 196.5 799 L 196 770.5 L 197 769.5 L 197.5 757 Z " /><path fill="rgb(208,207,208)" stroke="rgb(208,207,208)" stroke-width="1" opacity="0.8862745098039215" d="M 195.5 809 L 196 826.5 L 195 826.5 L 195.5 809 Z " /><path fill="rgb(208,207,208)" stroke="rgb(208,207,208)" stroke-width="1" opacity="0.8862745098039215" d="M 306.5 821 L 308 892.5 L 307 893.5 L 306.5 925 L 306 888.5 L 307 887.5 L 307 877.5 L 306 876.5 L 306.5 821 Z " /><path fill="rgb(208,207,208)" stroke="rgb(208,207,208)" stroke-width="1" opacity="0.8862745098039215" d="M 194.5 828 L 195 841.5 L 189.5 869 L 189 865.5 L 193 848.5 L 194.5 828 Z " /><path fill="rgb(208,207,208)" stroke="rgb(208,207,208)" stroke-width="1" opacity="0.8862745098039215" d="M 188.5 870 L 189 872.5 L 187.5 876 L 187 873.5 L 188.5 870 Z " /><path fill="rgb(208,207,208)" stroke="rgb(208,207,208)" stroke-width="1" opacity="0.8862745098039215" d="M 186.5 877 L 187 885.5 L 195 903.5 L 196 908.5 L 196 923.5 L 194 932.5 L 187 945.5 L 186.5 949 L 186 945.5 L 193 931.5 L 195 921.5 L 195 919.5 L 194 904.5 L 187 889.5 L 186.5 877 Z " /><path fill="rgb(208,207,208)" stroke="rgb(208,207,208)" stroke-width="1" opacity="0.8862745098039215" d="M 305.5 936 L 306 972.5 L 305 973.5 L 304.5 993 L 304 971.5 L 305 970.5 L 305.5 936 Z " /><path fill="rgb(208,207,208)" stroke="rgb(208,207,208)" stroke-width="1" opacity="0.8862745098039215" d="M 186.5 953 L 187 956.5 L 193 966.5 L 196 975.5 L 196 979.5 L 195 979.5 L 193 969.5 L 188 962.5 L 186 956.5 L 186.5 953 Z " /><path fill="rgb(208,207,208)" stroke="rgb(208,207,208)" stroke-width="1" opacity="0.8862745098039215" d="M 196.5 981 L 197 989.5 L 196 989.5 L 196.5 981 Z " /><path fill="rgb(208,207,208)" stroke="rgb(208,207,208)" stroke-width="1" opacity="0.8862745098039215" d="M 195.5 992 L 196 996.5 L 186.5 1019 L 186 1015.5 L 193 1002.5 L 195.5 992 Z " /><path fill="rgb(208,207,208)" stroke="rgb(208,207,208)" stroke-width="1" opacity="0.8862745098039215" d="M 303.5 997 L 304 1020.5 L 303 1020.5 L 303.5 997 Z " /><path fill="rgb(208,207,208)" stroke="rgb(208,207,208)" stroke-width="1" opacity="0.8862745098039215" d="M 186.5 1021 L 197 1043.5 L 200 1054.5 L 200 1060.5 L 199 1060.5 Q 200 1054.5 197 1052.5 L 197 1050.5 L 196 1048.5 L 196 1046.5 Q 193.2 1035.3 187 1027.5 L 186.5 1021 Z " /><path fill="rgb(208,207,208)" stroke="rgb(208,207,208)" stroke-width="1" opacity="0.8862745098039215" d="M 304.5 1022 L 306 1074.5 L 305 1074.5 L 304.5 1022 Z " /><path fill="rgb(208,207,208)" stroke="rgb(208,207,208)" stroke-width="1" opacity="0.8862745098039215" d="M 199.5 1063 L 200 1067.5 L 195 1079.5 L 190 1085.5 Q 181.5 1110 169 1130.5 Q 166.5 1136 168 1145.5 Q 170.9 1153.6 177.5 1158 L 187.5 1163 L 206.5 1168 L 212.5 1168 L 220.5 1170 L 229.5 1170 L 230.5 1171 L 266.5 1171 L 267.5 1170 L 282.5 1170 L 295.5 1166 Q 305.2 1162.7 311 1155.5 Q 315.8 1150.3 314 1138.5 L 310 1120.5 L 307 1089.5 L 308 1089.5 L 311 1120.5 L 315 1137.5 L 315 1150.5 Q 312.9 1158.4 306.5 1162 L 295.5 1168 L 289 1169 Q 290.3 1172.3 285.5 1171 L 284.5 1172 L 273.5 1173 L 270.5 1172 L 269.5 1173 L 252.5 1173 L 249.5 1174 Q 247.8 1171.2 241.5 1173 L 239.5 1173 L 235.5 1174 L 231.5 1172 L 195.5 1168 L 187.5 1164 Q 181.8 1164.7 179.5 1162 L 170 1153.5 Q 164.6 1147.9 166 1135.5 L 189 1084.5 L 195 1077.5 Q 192.5 1076 196 1074.5 L 199 1067.5 L 198 1065.5 L 199.5 1063 Z " /><path fill="rgb(208,207,208)" stroke="rgb(208,207,208)" stroke-width="1" opacity="0.8862745098039215" d="M 306.5 1076 L 307 1087.5 L 306 1087.5 L 306.5 1076 Z " /><path fill="rgb(0,0,0)" stroke="rgb(0,0,0)" stroke-width="1" opacity="0" d="M 0 0 L 499 0 L 499 1200 L 0 1200 L 0 0 Z M 174 26 L 167 28 Q 151 45 129 54 L 111 57 L 109 57 L 106 56 L 104 57 L 88 53 L 75 45 L 67 42 L 64 43 Q 57 45 56 42 L 54 43 L 33 43 L 32 44 L 30 43 L 24 45 L 17 53 L 13 61 Q 14 68 10 72 L 11 74 Q 13 80 10 82 Q 9 86 11 88 L 11 97 L 10 98 L 12 106 L 11 109 Q 14 113 13 123 L 13 125 L 16 133 L 16 137 L 24 151 L 31 155 L 33 155 L 56 155 L 57 156 L 60 155 L 62 156 L 63 155 L 80 154 L 99 141 L 118 134 L 120 135 L 127 133 L 129 133 L 132 134 L 148 134 L 155 136 Q 166 139 174 146 L 188 164 L 200 188 L 201 215 L 202 216 L 201 218 L 202 229 L 206 234 L 206 257 L 207 258 L 206 262 L 206 264 L 207 267 L 207 303 L 208 304 L 209 511 L 210 512 L 210 591 L 207 595 L 203 596 L 200 601 L 201 620 L 202 621 L 201 625 L 202 627 L 202 646 L 201 647 Q 200 651 202 653 L 201 656 L 201 671 L 200 672 L 200 690 L 198 692 L 200 696 L 199 697 L 198 757 L 197 758 L 197 770 L 196 771 L 196 809 L 195 810 L 194 842 L 189 870 L 186 878 L 187 890 L 194 905 L 195 920 L 195 922 L 193 932 L 186 946 L 186 957 L 188 963 L 193 970 L 196 981 L 196 992 Q 193 994 194 1000 L 186 1016 L 186 1025 L 196 1047 L 196 1049 L 197 1051 L 197 1053 L 199 1056 Q 198 1060 200 1062 L 198 1066 L 199 1068 L 196 1075 Q 192 1076 195 1078 L 189 1085 L 166 1136 Q 165 1148 170 1154 L 180 1162 Q 182 1165 188 1164 L 196 1168 L 232 1172 L 236 1174 L 240 1173 L 242 1173 Q 248 1171 250 1174 L 253 1173 L 270 1173 L 271 1172 L 274 1173 L 285 1172 L 286 1171 Q 290 1172 289 1169 L 296 1168 L 307 1162 Q 313 1158 315 1151 L 315 1138 L 311 1121 L 308 1090 L 307 1089 L 306 1057 L 305 1056 L 305 1023 L 304 1022 L 304 994 L 305 993 L 305 974 L 306 973 L 306 926 L 307 925 L 307 894 L 308 893 L 305 768 L 304 767 L 304 754 L 303 753 L 302 731 L 301 730 L 299 695 L 298 694 L 297 678 L 296 677 Q 294 671 298 672 L 298 660 L 299 659 L 296 645 L 297 643 L 293 622 L 292 607 L 291 606 L 292 601 Q 290 599 291 595 L 287 591 L 277 589 L 275 588 L 275 550 L 274 549 L 274 525 L 273 524 L 273 462 L 272 461 L 272 434 L 271 433 L 270 352 L 269 351 L 269 320 L 270 319 L 269 232 L 272 230 L 274 227 L 274 219 L 273 218 Q 272 213 274 212 Q 276 205 273 204 L 274 188 L 281 186 L 285 181 L 287 171 L 289 169 L 295 153 L 297 144 L 297 142 L 304 128 L 314 121 L 325 121 L 341 125 L 372 142 L 385 147 L 389 151 L 396 154 L 397 157 L 410 164 Q 412 163 411 166 L 414 166 L 424 174 Q 426 173 425 176 L 428 176 L 436 183 Q 435 185 439 184 L 440 187 L 443 187 L 448 192 Q 447 194 450 193 L 450 195 L 453 196 Q 455 195 454 198 L 457 198 L 458 201 L 469 209 L 483 214 Q 487 215 488 212 L 488 208 L 480 195 Q 481 192 479 193 L 479 192 L 476 189 Q 472 189 472 184 L 469 181 Q 466 181 466 177 L 461 173 L 460 171 Q 461 168 459 169 L 450 159 Q 447 160 448 157 L 446 157 L 446 156 L 443 154 L 442 151 L 439 149 L 434 143 Q 431 144 432 142 L 430 140 L 426 135 Q 423 136 424 134 L 422 132 L 418 127 Q 415 128 416 126 L 413 123 L 410 119 Q 407 120 408 118 L 406 116 L 402 111 Q 399 112 400 109 L 394 105 Q 395 102 392 103 L 392 101 L 388 99 L 383 93 Q 380 94 381 91 L 379 90 L 377 90 L 377 88 Q 374 89 375 87 Q 358 69 337 56 L 318 45 L 315 45 L 305 39 Q 298 40 296 36 L 292 36 L 279 31 Q 269 31 263 28 L 254 28 L 250 26 L 174 26 Z " /><path fill="rgb(0,0,0)" stroke="rgb(0,0,0)" stroke-width="1" opacity="0" d="M 211.5 594 L 213.5 595 Q 214.7 592.8 219.5 594 L 221.5 596 L 235.5 596 L 236.5 595 L 250.5 595 L 250.5 596 L 239.5 599 L 218.5 599 Q 212.3 597.6 211.5 594 Z M 218 595 L 218 596 L 220 596 L 218 595 Z " /><path fill="rgb(193,158,90)" stroke="rgb(193,158,90)" stroke-width="1" opacity="0.996078431372549" d="M 198.5 28 L 232.5 28 L 233.5 29 L 258.5 30 L 270.5 33 L 275.5 33 L 302.5 41 L 324.5 51 L 342.5 62 L 366.5 81 L 400.5 113 L 402 113 Q 400.9 115.7 403.5 115 Q 431.4 139.7 454 168 L 456 168 Q 454.9 170.7 457.5 170 Q 461.2 172 459.5 174 L 467 180.5 L 466 182.5 L 468.5 183 L 474 188.5 L 473.5 190 L 478 193.5 Q 480.8 196.2 480 202.5 L 482.5 206 L 485 205 L 487 210.5 L 483.5 212 L 466 205 L 464.5 202 L 461 201 Q 462.1 198.3 459.5 199 L 446 188.5 L 443.5 185 L 437 181.5 L 436.5 180 L 434.5 180 L 392 150.5 L 394 149.5 L 391.5 149 Q 390 151.5 388.5 148 L 385 146.5 L 384.5 145 L 383.5 146 L 380.5 143 Q 376.8 143.8 376 141.5 L 377 138.5 L 376 138.5 L 374.5 141 L 373.5 139 L 371.5 139 L 366 136.5 L 366.5 135 L 364.5 136 L 364.5 134 L 362.5 135 L 362.5 133 L 360.5 132 L 357.5 133 L 353 131 L 353.5 129 Q 354.8 131.3 356 128.5 L 349.5 124 L 345.5 123 L 344.5 125 L 347 126.5 L 345.5 126 L 334.5 121 Q 327.3 121.7 324.5 118 L 319.5 118 L 309.5 121 L 301 128.5 L 300 132 L 298 132.5 L 298 134.5 Q 299.1 137.8 296.5 137 L 297 138.5 L 289 163.5 L 285 169.5 L 282 183 L 278.5 185 L 273 185 L 272 182.5 L 274 182.5 L 275 176.5 L 272 174.5 L 274 173.5 Q 273.3 176.1 276 175 L 277 170.5 L 276 168.5 L 278 168.5 L 276.5 166 L 274.5 167 L 272 165.5 L 271.5 168 L 271 164.5 L 272 160 Q 274.7 158.9 274 161.5 L 274 163.5 L 274.5 166 L 277 162.5 L 276 159.5 L 278 160.5 L 278.5 162 L 280 157.5 L 279.5 156 L 281 155.5 L 278 154.5 L 281 152.5 L 278.5 149 L 277 149.5 L 277 151.5 L 275 158 Q 270.3 157.3 269 161.5 L 270 166.5 L 269 169 L 266 170.5 Q 268.3 171.8 265.5 173 Q 262.9 172.2 264 175.5 L 266 176.5 Q 264.9 173.2 267.5 174 L 269 173.5 L 268.5 175 L 270 175.5 L 268 176 Q 269.7 180.1 265.5 179 L 263.5 176 L 261.5 179 Q 257.3 178.3 256.5 181 L 254.5 181 L 252.5 180 L 249.5 181 L 241 182.5 L 241.5 184 Q 239.3 184.8 240 182.5 L 241.5 181 L 251.5 179 L 260 173.5 L 273.5 154 Q 274.8 156.3 276 153.5 L 274 152.5 L 280.5 143 L 281.5 145 Q 284.8 143.3 281 141.5 L 282.5 138 L 284 141.5 L 283.5 143 Q 286.9 143.9 285 138.5 L 286 136 L 283.5 137 L 284 135.5 L 285.5 132 L 287 132.5 L 286 127.5 L 292 116 L 297 113.5 Q 296.3 111.3 298.5 112 Q 303.3 106.8 315.5 109 L 320.5 111 L 329.5 112 L 351.5 121 L 384.5 139 L 397.5 149 L 418.5 162 L 420.5 162 L 421.5 160 L 420 159.5 L 421 157 L 415 158 L 414 154.5 L 415 151 L 412 151.5 L 413 153.5 L 409 150.5 L 408.5 146 L 407.5 148 L 405 147 L 404.5 143 L 403 143.5 Q 405.3 142.2 404 137.5 L 403 137.5 L 401.5 143 L 401 141 L 399 140.5 L 400 137.5 L 399 137.5 Q 399.8 139.8 397.5 139 L 398 137.5 L 397.5 134 L 397 136 Q 394.3 137.1 395 134.5 L 392 133.5 L 390.5 131 L 384 127 L 384 125 Q 380.3 126.5 381 123.5 L 379 123.5 L 378.5 121 L 377 121.5 L 376.5 120 L 375 120.5 L 375.5 119 L 371 118 L 371 116 L 368 116 L 368 114 L 366 114 Q 367.1 111.3 364.5 112 L 363 112.5 Q 363.8 110.3 361.5 111 Q 359.8 107.9 358 109.5 L 357.5 106 Q 356.3 108.3 355 105.5 L 354.5 104 L 353.5 106 L 352.5 104 L 351 104.5 L 348.5 101 L 347 101.5 L 345.5 99 L 344 99.5 L 343.5 97 Q 342.3 99.2 341 96.5 L 339.5 94 Q 338.3 96.3 337 93.5 L 336.5 92 L 334.5 93 L 332.5 92 L 330 93 L 328.5 90 L 326.5 90 L 322.5 91 L 319 90.5 L 318.5 92 L 310.5 90 L 309.5 93 Q 308.8 90.3 304.5 91 L 299.5 94 L 297.5 94 L 294.5 93 L 286.5 96 L 284 91.5 L 285 89.5 L 282.5 85 L 282 89.5 L 284 95.5 L 281.5 96 Q 279.5 92.5 273.5 93 L 274 94.5 L 273.5 96 L 270 95.5 L 269.5 97 L 268.5 95 L 267.5 97 L 264.5 96 L 263 96.5 Q 263.8 94.3 261.5 95 L 258.5 97 L 255.5 96 L 254 96.5 L 252.5 94 L 250.5 97 L 247.5 95 L 246.5 97 L 245.5 93 L 244 96 L 240.5 95 L 237.5 97 L 232.5 94 L 230.5 95 L 227 93 L 226.5 95 L 223.5 93 L 221.5 93 L 217.5 94 L 215 92.5 L 214.5 94 L 212.5 93 L 210.5 94 L 208 93.5 L 209 91.5 L 206.5 91 L 206.5 93 L 203.5 94 L 203.5 93 L 205 92.5 L 202.5 92 Q 201 94.5 195.5 93 L 192.5 91 L 191.5 94 L 190.5 89 L 189.5 92 L 188.5 90 L 186 90.5 Q 186.7 93.1 184 92 L 184 90 Q 181.3 91.1 182 88.5 L 180 89.5 Q 181.1 92.8 178.5 92 L 175.5 90 L 173.5 90 L 170 91 L 169.5 89 Q 168.5 92 163.5 91 L 158.5 90 L 156 91.5 Q 156.7 88.9 154 90 Q 155 93 152 92 L 151.5 90 L 151 93 Q 145.8 94.8 148 87.5 L 149.5 84 L 150 87 Q 154 88.4 152 81.5 L 150 81.5 L 149 75.5 L 150 73 L 148 73 Q 149.1 70.3 146.5 71 L 145 70.5 L 144 75 L 135 79 L 133 84.5 L 133 89 L 131 88.5 L 131 78.5 L 129 79.5 L 128.5 89 L 125.5 83 L 123.5 83 L 122 83.5 L 122 92.5 L 120 91.5 L 119.5 90 L 118 90.5 L 116.5 82 L 116 92.5 L 114 95.5 L 114.5 97 L 111.5 96 L 109 97 Q 110 94 107 95 Q 108.1 97.7 105.5 97 L 102.5 98 L 100 96.5 L 98.5 99 L 96.5 98 L 90.5 100 L 88 98.5 L 87.5 100 L 85.5 100 L 83.5 99 Q 82 102.5 80.5 100 Q 74.8 99.3 72.5 102 L 67.5 101 Q 65.3 100.3 66 102.5 L 64.5 102 L 61.5 101 L 60 101.5 L 57 93 L 53 94 L 53 88 L 51 88 Q 52.1 85.3 49.5 86 L 46.5 90 L 45 89.5 Q 46.3 94.3 43 93 L 43 87.5 L 41.5 87 L 40 86.5 L 41 88.5 L 38.5 90 L 35.5 88 Q 32.3 89.8 36 91.5 L 35.5 93 L 26.5 93 L 24.5 90 L 24 92 Q 21.3 93.1 22 90.5 L 21 90.5 L 20.5 93 L 18 92 L 17 98.5 L 18 101 Q 14.7 102.3 16 97.5 L 13 94.5 L 13 69.5 Q 15.9 55.4 24.5 47 L 36.5 46 L 37.5 45 L 53.5 45 L 58.5 44 L 60.5 44 L 70.5 45 L 85.5 54 L 99.5 58 L 119.5 58 Q 134.1 55.6 144.5 49 L 168.5 30 L 172.5 29 L 197.5 29 L 198.5 28 Z M 193 44 L 194 45 Q 195 47 196 45 L 193 44 Z M 68 48 L 66 51 L 70 50 Q 71 47 68 48 Z M 189 58 Q 186 59 187 64 Q 189 67 190 64 L 189 58 Z M 168 61 L 167 64 L 168 64 L 168 61 Z M 224 63 L 223 72 L 222 71 L 221 74 L 217 73 L 218 76 L 219 74 L 220 76 L 225 73 L 224 72 L 224 63 Z M 245 63 L 244 70 L 245 70 L 245 63 Z M 181 64 Q 181 70 178 72 Q 177 75 180 74 L 181 82 L 182 80 Q 181 77 184 78 L 183 80 L 185 80 L 186 79 Q 184 72 187 71 Q 185 67 184 71 L 181 64 Z M 201 66 L 200 78 L 201 79 L 200 81 L 201 84 L 201 81 L 204 82 L 204 80 L 205 78 L 203 79 L 203 78 Q 204 73 201 73 Q 200 68 204 70 L 205 72 Q 207 71 205 70 L 206 66 Q 203 65 204 68 L 201 68 L 201 66 Z M 188 68 L 189 71 L 187 78 L 188 87 L 191 80 L 190 76 L 190 69 L 188 68 Z M 229 68 L 227 72 L 229 72 L 230 73 L 229 68 Z M 253 68 L 252 71 L 253 71 L 253 68 Z M 166 69 L 164 77 L 163 71 Q 163 77 160 78 L 159 76 L 158 79 L 161 80 L 162 85 L 163 79 Q 166 78 165 81 L 166 81 L 166 69 Z M 209 69 L 209 70 L 211 70 L 209 69 Z M 232 69 L 231 72 L 232 72 L 232 69 Z M 176 70 Q 173 71 175 73 Q 174 76 177 75 L 177 79 L 178 79 Q 179 72 176 70 Z M 193 71 L 192 83 L 193 84 Q 192 86 195 85 L 194 83 L 195 80 Q 193 78 194 73 L 193 71 Z M 198 71 Q 195 73 196 79 L 196 81 L 197 85 L 199 86 L 198 83 L 199 81 L 198 71 Z M 251 71 L 251 76 L 250 79 L 251 80 L 251 89 L 252 89 L 252 73 L 251 71 Z M 299 71 L 298 82 L 299 82 L 299 71 Z M 204 72 Q 202 75 205 74 L 204 72 Z M 209 72 L 209 73 L 211 73 L 209 72 Z M 213 72 L 212 74 Q 214 73 213 77 L 215 77 L 214 75 L 216 74 L 213 72 Z M 245 72 L 241 77 L 244 77 L 245 75 L 245 72 Z M 168 73 L 167 80 L 169 79 L 169 81 L 170 81 Q 171 76 168 77 L 168 73 Z M 207 73 L 205 75 L 207 82 L 210 82 L 206 77 L 207 75 L 207 73 Z M 228 73 L 232 77 L 232 74 L 231 74 L 228 73 Z M 156 75 L 155 80 L 152 81 L 154 84 L 155 81 L 157 84 L 157 82 L 160 82 L 157 81 Q 158 76 156 75 Z M 210 75 L 208 77 L 209 78 L 211 77 L 210 75 Z M 266 75 Q 265 78 268 77 Q 269 74 266 75 Z M 225 76 L 224 79 L 226 79 L 227 77 L 225 76 Z M 235 76 L 235 77 L 238 77 L 235 76 Z M 246 76 L 246 79 L 246 81 L 248 85 L 249 79 L 248 78 L 248 77 L 246 76 Z M 258 76 L 257 85 L 258 86 L 257 88 L 259 88 L 262 84 Q 264 76 260 77 L 260 81 L 258 76 Z M 220 77 L 221 82 L 220 84 L 221 85 L 223 82 L 220 77 Z M 227 77 L 228 80 L 227 82 L 228 84 Q 229 87 226 86 Q 225 89 228 88 L 230 85 L 233 84 L 232 80 L 234 80 Q 232 76 231 80 L 230 79 L 227 77 Z M 240 77 L 239 79 L 242 80 L 240 77 Z M 274 77 Q 271 82 275 84 L 276 82 Q 276 78 274 77 Z M 284 77 Q 282 83 285 87 L 286 87 L 284 77 Z M 217 79 L 218 82 Q 217 84 220 83 L 219 82 Q 220 78 217 79 Z M 236 79 L 237 81 Q 238 78 236 79 Z M 244 79 L 243 82 L 241 83 L 245 84 L 243 87 L 245 87 L 246 85 Q 247 81 244 82 L 244 79 Z M 266 79 Q 264 84 268 83 Q 270 78 266 79 Z M 271 79 L 270 82 L 271 82 L 271 79 Z M 279 79 L 278 82 L 279 82 L 279 79 Z M 302 79 L 301 82 L 302 82 L 302 79 Z M 308 79 L 309 84 L 310 84 Q 312 78 308 79 Z M 318 79 L 317 82 L 318 82 L 318 79 Z M 224 80 L 224 82 L 224 84 L 226 84 Q 228 79 224 80 Z M 213 81 L 213 83 L 211 82 L 208 84 Q 209 86 211 84 L 214 86 L 215 82 L 213 81 Z M 234 81 Q 232 84 235 83 L 234 81 Z M 254 81 L 253 85 L 254 85 L 254 81 Z M 256 81 L 255 85 L 256 85 L 256 81 Z M 264 81 L 263 84 L 264 84 L 264 81 Z M 288 81 L 287 87 L 288 87 L 288 81 Z M 203 82 L 201 87 L 203 88 L 203 82 Z M 205 82 L 205 84 L 207 85 Q 208 81 205 82 Z M 215 82 L 215 86 L 217 87 L 216 85 L 217 83 L 215 82 Z M 239 82 L 240 84 Q 241 81 239 82 Z M 236 84 L 234 87 L 237 87 L 236 84 Z M 250 84 L 249 87 L 250 87 L 250 84 Z M 278 84 L 277 87 L 278 87 L 278 84 Z M 241 85 L 238 87 L 242 87 L 241 85 Z M 215 86 L 213 88 L 215 88 L 215 86 Z M 339 86 L 338 89 L 339 89 L 339 86 Z M 210 88 L 210 89 L 212 89 L 210 88 Z M 231 88 L 229 90 L 231 90 L 231 88 Z M 110 91 L 109 95 L 110 95 L 110 91 Z M 210 91 L 211 93 L 214 92 L 210 91 Z M 366 100 L 365 103 L 366 103 L 366 100 Z M 364 104 Q 363 107 366 106 Q 367 103 364 104 Z M 281 145 L 279 147 L 281 150 Q 286 148 281 145 Z M 419 148 L 418 151 L 419 151 L 419 148 Z M 425 162 L 425 164 L 423 165 L 425 166 L 427 166 Q 428 161 425 162 Z M 429 165 L 428 168 L 431 169 L 430 168 Q 431 164 429 165 Z M 432 167 L 434 169 L 435 169 L 432 167 Z M 432 169 L 436 173 Q 438 174 437 171 L 436 171 L 432 169 Z M 439 172 Q 437 175 440 176 L 441 176 L 439 172 Z M 432 174 L 431 176 L 434 176 L 432 174 Z M 276 175 L 277 178 L 278 176 L 276 175 Z M 445 176 L 442 178 L 446 180 L 448 179 L 446 178 L 446 177 L 445 176 Z M 448 180 L 451 183 L 450 182 Q 451 179 448 180 Z M 453 184 L 454 186 L 455 186 L 453 184 Z M 474 198 Q 473 200 476 199 L 475 201 L 478 202 L 479 200 L 478 200 L 478 199 L 474 198 Z M 468 199 L 471 202 L 472 202 L 468 199 Z M 475 202 L 473 204 L 480 206 L 480 204 L 475 202 Z M 484 208 L 482 210 L 485 211 Q 487 212 486 209 L 484 208 Z " /><path fill="rgb(193,158,90)" stroke="rgb(193,158,90)" stroke-width="1" opacity="0.996078431372549" d="M 146.5 74 L 148 77.5 L 146 78.5 L 146.5 74 Z " /><path fill="rgb(193,158,90)" stroke="rgb(193,158,90)" stroke-width="1" opacity="0.996078431372549" d="M 146.5 81 L 147 83.5 L 146 83.5 L 146.5 81 Z " /><path fill="rgb(193,158,90)" stroke="rgb(193,158,90)" stroke-width="1" opacity="0.996078431372549" d="M 135.5 83 L 136 87.5 L 135 87.5 L 135.5 83 Z " /><path fill="rgb(193,158,90)" stroke="rgb(193,158,90)" stroke-width="1" opacity="0.996078431372549" d="M 123.5 86 L 126 87.5 L 124.5 90 L 124 88.5 L 124.5 87 L 123.5 86 Z " /><path fill="rgb(193,158,90)" stroke="rgb(193,158,90)" stroke-width="1" opacity="0.996078431372549" d="M 50.5 89 Q 53.3 90.3 51 91.5 L 50.5 93 L 50.5 89 Z " /><path fill="rgb(193,158,90)" stroke="rgb(193,158,90)" stroke-width="1" opacity="0.996078431372549" d="M 146.5 89 L 147 92.5 L 146 92.5 L 146.5 89 Z " /><path fill="rgb(193,158,90)" stroke="rgb(193,158,90)" stroke-width="1" opacity="0.996078431372549" d="M 143.5 91 L 144 94.5 L 143 94.5 L 143.5 91 Z " /><path fill="rgb(193,158,90)" stroke="rgb(193,158,90)" stroke-width="1" opacity="0.996078431372549" d="M 34 95 Q 36.7 93.9 36 96.5 L 34 97.5 L 34 95 Z " /><path fill="rgb(193,158,90)" stroke="rgb(193,158,90)" stroke-width="1" opacity="0.996078431372549" d="M 135.5 95 L 134.5 97 L 135.5 95 Z " /><path fill="rgb(193,158,90)" stroke="rgb(193,158,90)" stroke-width="1" opacity="0.996078431372549" d="M 136.5 98 Q 146.2 96.3 150.5 100 Q 162.7 107.8 172 118.5 L 170.5 121 L 169 118.5 L 170 117.5 L 162.5 110 L 156.5 106 L 154.5 107 L 154.5 106 L 156 105.5 L 153 104 L 152.5 106 L 151 103 Q 147.3 101.7 149 107.5 L 146 106.5 L 145.5 115 L 144 112.5 L 144 110.5 L 142.5 107 Q 139.1 106.1 141 111.5 L 140 112.5 L 140 120 Q 137 121.3 138 117.5 L 139 115.5 L 137 116.5 Q 136.4 122.7 139 125 L 142 126.5 L 137 127 L 136.5 124 L 135 127 L 132 127.5 L 141.5 128 L 144.5 130 Q 145.6 127.3 149 128 L 148.5 124 L 147 124.5 L 148.5 119 L 151.5 125 L 156 124 L 157.5 121 L 158 124 L 160.5 125 L 161 119 Q 164.5 117.9 163 125.5 L 168 126.5 L 167.5 128 Q 169.8 128.8 169 126.5 L 171 127.5 Q 170.3 130.1 173 129 L 172 126.5 L 174 126 L 173 122.5 L 173.5 120 L 188 136.5 L 186 136.5 L 187 138.5 L 186 140.5 L 186 142.5 L 186.5 144 Q 189.5 143.5 189 139.5 L 188.5 138 L 192 142.5 L 191 145.5 L 193 146.5 L 192 144.5 L 194 145.5 L 202 158.5 L 201.5 160 Q 203.8 159.3 203 161.5 L 203.5 164 L 206 165.5 L 205.5 167 Q 207.8 166.3 207 168.5 L 216.5 181 L 225 182.5 Q 223.8 185.3 222.5 183 L 218.5 183 L 213.5 186 L 202.5 188 L 200 184.5 L 201 182.5 L 198 179.5 L 192 165.5 L 180 149 L 178 149 Q 179.1 146.3 176.5 147 L 164.5 138 L 152.5 133 L 141.5 130 L 125.5 130 Q 123.7 132.8 117.5 131 Q 113.2 134.7 105.5 135 Q 91.2 141.7 80.5 152 L 62.5 153 L 61.5 154 L 33.5 154 L 26 150.5 Q 20.3 143.7 18 133.5 L 20 132.5 Q 16.5 131 19 129.5 L 19 115 L 26.5 115 L 28.5 115 L 36.5 114 L 38.5 115 L 41.5 114 L 45.5 116 L 48 115.5 Q 47.3 113.3 49.5 114 L 51.5 115 L 53.5 115 L 61 114 L 61.5 112 L 64 113 L 64.5 115 L 65.5 113 L 69.5 113 L 78 112 Q 76.9 109.3 79.5 110 L 81.5 109 L 83.5 109 L 90.5 108 L 92 108.5 Q 91.3 106.3 93.5 107 L 95.5 107 L 101.5 105 L 105.5 105 L 113.5 103 L 119.5 103 L 136.5 98 Z M 143 102 L 142 105 L 143 105 L 143 102 Z M 175 123 L 176 125 L 177 125 L 175 123 Z M 178 125 L 177 127 L 179 128 L 178 125 Z M 120 126 L 118 128 L 120 128 L 120 126 Z M 124 126 L 122 128 L 125 128 L 124 126 Z M 177 128 L 179 135 L 179 133 Q 181 131 178 130 Q 179 127 177 128 Z M 180 128 Q 178 131 181 130 L 180 128 Z M 22 133 L 22 136 L 25 135 L 22 133 Z M 97 133 L 97 134 L 99 134 L 97 133 Z M 62 136 L 63 138 Q 64 135 62 136 Z M 89 136 L 87 138 L 89 138 L 89 136 Z M 189 142 L 190 145 L 191 143 L 189 142 Z M 195 148 L 193 151 Q 195 154 196 151 L 195 148 Z " /><path fill="rgb(193,158,90)" stroke="rgb(193,158,90)" stroke-width="1" opacity="0.996078431372549" d="M 157.5 111 L 158 113.5 L 157 113.5 L 157.5 111 Z " /><path fill="rgb(193,158,90)" stroke="rgb(193,158,90)" stroke-width="1" opacity="0.996078431372549" d="M 152.5 114 L 154 114.5 L 154 122.5 L 153 122.5 Q 153.6 115.8 152.5 114 Z " /><path fill="rgb(193,158,90)" stroke="rgb(193,158,90)" stroke-width="1" opacity="0.996078431372549" d="M 164.5 114 L 165 116 L 167 116.5 L 164.5 123 L 164 120.5 Q 166.3 119.3 163.5 118 Q 160.9 118.7 162 116 Q 164.8 117 164.5 114 Z " /><path fill="rgb(193,158,90)" stroke="rgb(193,158,90)" stroke-width="1" opacity="0.996078431372549" d="M 151.5 116 L 152 118.5 L 151 118.5 L 151.5 116 Z " /><path fill="rgb(193,158,90)" stroke="rgb(193,158,90)" stroke-width="1" opacity="0.996078431372549" d="M 167.5 118 L 168 120.5 L 167 120.5 L 167.5 118 Z " /><path fill="rgb(193,158,90)" stroke="rgb(193,158,90)" stroke-width="1" opacity="0.996078431372549" d="M 143 123 Q 146.7 121.7 145 127.5 L 144 127.5 L 143 123 Z " /><path fill="rgb(193,158,90)" stroke="rgb(193,158,90)" stroke-width="1" opacity="0.996078431372549" d="M 350.5 128 L 351.5 130 L 350.5 128 Z " /><path fill="rgb(193,158,90)" stroke="rgb(193,158,90)" stroke-width="1" opacity="0.996078431372549" d="M 277.5 156 L 279 158.5 L 277 157.5 L 277.5 156 Z " /><path fill="rgb(193,158,90)" stroke="rgb(193,158,90)" stroke-width="1" opacity="0.996078431372549" d="M 271.5 178 L 272 179.5 L 268.5 181 L 268.5 180 L 271.5 178 Z " /><path fill="rgb(193,158,90)" stroke="rgb(193,158,90)" stroke-width="1" opacity="0.996078431372549" d="M 226.5 182 Q 228.8 181.3 228 183.5 L 226.5 182 Z " /><path fill="rgb(193,158,90)" stroke="rgb(193,158,90)" stroke-width="1" opacity="0.996078431372549" d="M 230.5 182 L 239 182.5 L 234.5 184 L 232.5 183 Q 230.7 185.5 230.5 182 Z " /><path fill="rgb(193,158,90)" stroke="rgb(193,158,90)" stroke-width="1" opacity="0.996078431372549" d="M 271.5 184 L 272 185.5 L 271 188.5 L 270 201.5 L 272 209.5 L 270 215.5 L 272 221.5 L 269.5 226 L 267 226.5 L 269 227.5 Q 263.3 229.5 265 238 L 262.5 237 L 260 241.5 L 261 243.5 L 260 244.5 L 260 254.5 Q 262.3 255.8 261 260.5 L 260 262.5 L 261 264.5 L 260 266.5 L 261 270.5 L 260 272.5 L 261 273.5 L 261 316.5 L 262 317.5 Q 259.5 319 261 324.5 L 262 326.5 L 261 331.5 L 262 334.5 L 262 336.5 Q 260.3 347.2 263 353.5 L 262 355.5 L 263 357.5 L 262 359.5 L 263 364.5 L 262 366.5 L 264 366.5 L 262 373.5 L 262 375.5 L 263 382.5 L 263 384.5 Q 264.3 389.3 262 390.5 L 263 393.5 L 263 395.5 L 264 398.5 L 263 400.5 L 263 402.5 L 264 407.5 L 263 410.5 L 264 412.5 L 263 414.5 L 264 416.5 L 263 420.5 L 264 424.5 L 263 426.5 L 264 429.5 L 264 431.5 L 264 488.5 L 265 489.5 L 265 522.5 L 266 523.5 L 266 549.5 L 267 550.5 L 266 553.5 L 267 555.5 L 266 557.5 L 266 559.5 L 267 563.5 L 267 583.5 L 268 585.5 L 267 588.5 L 267.5 591 L 269.5 590 L 271.5 591 L 273 590.5 Q 273.5 593.5 266.5 592 L 261.5 594 L 262.5 592 L 265 590.5 L 264 586.5 L 265 584.5 L 264 581.5 L 264 579.5 L 264 526.5 L 263 525.5 L 262 455.5 L 261 454.5 L 262 452.5 L 262 450.5 Q 263.5 445 261 443.5 L 261 407.5 L 260 406.5 Q 262.8 404.8 261 398.5 L 260 396.5 L 260 394.5 L 260 327.5 L 259 325.5 L 259 323.5 L 260 319.5 L 259 318.5 L 259 247.5 L 258 246.5 L 259 244.5 L 258 242.5 L 259 240.5 L 259 238.5 Q 258 231 260 228 L 255 228.5 L 256 229.5 L 256 247.5 L 256 249.5 L 254.5 255 L 251.5 250 L 251 253.5 L 253 257.5 L 252 261.5 L 253 265.5 L 252 265.5 L 251.5 262 Q 249.1 265.1 250 271.5 L 251 273.5 L 250 277.5 L 250 279.5 L 251 281.5 L 251 297.5 L 252 300.5 L 251 300.5 L 250 298.5 L 248 268.5 L 249 266.5 L 248 263.5 L 249 259 L 251 258.5 L 251 256.5 Q 251.8 254.3 249.5 255 L 247 254 L 247.5 252 L 250 253.5 L 248 250.5 L 251 249.5 L 248 247.5 L 250 246.5 L 248 246 Q 246.1 241.9 247 233.5 L 246 232.5 L 248.5 229 L 249 232.5 L 248.5 234 Q 251.1 233.3 250 236 L 252 236 L 250 231.5 L 252 232.5 L 252.5 234 L 253 229.5 Q 252 227 247.5 228 L 243 229 L 243 257.5 Q 240.2 256.9 241 260 L 243 260.5 L 243 270.5 L 242 274.5 L 243 275.5 L 244 295 Q 241.3 293.9 242 296.5 L 244 296.5 L 243.5 311 L 242.5 303 L 242 315 Q 245.7 313.6 244 319.5 L 242 326.5 L 243 328.5 Q 240.8 329.8 242 334.5 L 243 334.5 L 243.5 332 L 244 334.5 L 243 335.5 L 243 347.5 L 244 349.5 L 243.5 351 L 245 351.5 L 245 361.5 L 244 365.5 L 244 367.5 L 246 380.5 L 245 382.5 L 246 383.5 L 246 414.5 L 247 415.5 L 247 424 Q 244 423 245 426 Q 248 425 247 428 L 245 428.5 L 245 436.5 L 246 436.5 L 246.5 430 L 247 448.5 Q 244.7 449.7 246 454.5 L 248 465.5 L 247 467.5 L 248 469.5 L 247 474.5 L 248 475.5 L 248 492.5 L 249 494.5 L 248 496.5 L 248 498.5 L 249 502 L 247 502.5 L 249 503 L 248 509.5 L 248 511.5 L 249 518.5 L 248 520.5 L 249 524.5 L 248 528.5 L 249 533.5 L 249 535.5 L 250 540.5 L 250 560 Q 247 558.8 248 562.5 Q 251.1 566.9 250 575.5 L 249 579 Q 245.7 577.7 247 582.5 L 242.5 589 Q 239.5 587 240 581.5 L 241 579.5 L 239 576.5 L 239 560.5 L 238 559.5 L 239 558.5 L 239 546.5 L 239 544.5 Q 240.8 537.3 237 535.5 L 238 531.5 L 235 530.5 L 234 527.5 L 236 526.5 L 235 521.5 L 236 519.5 L 235 516.5 L 236.5 514 L 238 513.5 L 238 486.5 L 237 485.5 L 237 463.5 L 238 461.5 L 237 460.5 L 237 430.5 L 238 428.5 L 237 423.5 L 237.5 421 L 239 420.5 L 237 420 L 237 403.5 L 235 396.5 L 237 396.5 L 236 393.5 L 237 392.5 L 238 380.5 Q 235.3 378.8 237 372.5 L 238 370.5 L 237 367.5 Q 239.2 366.3 238 361.5 L 235 354.5 L 236 352 L 238 351.5 L 236 350.5 L 238 350 L 238.5 319 L 239 382.5 L 238 384.5 L 238 386.5 L 239 397.5 L 238 399.5 L 240 401.5 L 240 455.5 L 241 456.5 L 241.5 484 L 242 397.5 L 241 396.5 L 240 318.5 L 241 317.5 L 241 306.5 L 239 306.5 L 237.5 284 L 236.5 287 L 235 276.5 L 237 276.5 L 236 268.5 L 237 263.5 L 236 262.5 Q 237.8 249.2 235 240.5 L 235 238.5 Q 234.3 232.8 237 230.5 L 227 227.5 L 232 226.5 L 231 224 L 229 223.5 L 231 221.5 L 229.5 218 Q 224.7 219.3 226 216 Q 231.2 218.1 230 213.5 Q 232.5 212 229 210.5 Q 228.3 208.3 230.5 209 L 230 207.5 L 232 202.5 L 219.5 202 L 213 203 L 213 210 L 217.5 210 L 217.5 211 L 215 211 L 215 216 L 224 217.5 L 212 219 Q 211.3 225.5 215.5 228 L 226 228.5 L 219.5 229 L 218 230.5 L 219 232.5 L 217 231.5 Q 217.8 229.3 215.5 230 L 215.5 232 Q 214 228.5 212.5 231 Q 206.7 232.7 208 229 Q 211.8 230.5 211 227.5 L 209 220 Q 205.2 221 204 218.5 L 209 216 L 210 212.5 L 207.5 212 L 204 214 L 204 211 Q 206.7 212.1 206 209.5 L 206 207.5 L 204 202.5 L 207.5 198 L 209 197.5 Q 206.8 196.3 208 191.5 L 206.5 190 L 204 191.5 L 205 194.5 L 204 194.5 L 203 189 L 217.5 187 L 217.5 188 Q 213.1 186.5 214 189.5 L 213 195 L 220 195.5 L 214 196 L 215 199.5 L 214.5 201 L 229.5 201 L 231 199.5 L 231 197.5 Q 231.7 194.5 228 196 L 228 194 L 231 193.5 L 231 189.5 Q 232.3 185.3 227.5 187 L 227.5 186 L 249.5 186 L 251.5 187 L 253 186.5 L 250.5 188 L 244 187 L 243 189.5 L 244 191.5 L 242 191.5 L 242.5 194 L 249.5 194 L 249.5 195 Q 242.2 192.4 244 198.5 L 243.5 200 L 252.5 200 L 258 202 L 259 209 Q 263.6 210.3 265 207.5 L 264 196 L 258 195 L 257 200 Q 252.1 201.6 254 196 L 256 195.5 L 252 194.5 L 256 193.5 L 253 189.5 L 254 187 L 258 188.5 L 258 190.5 L 259.5 194 L 263.5 195 L 266.5 187 L 269.5 188 L 269.5 186 Q 272 186.7 271.5 184 Z M 210 189 Q 209 193 212 192 Q 213 188 210 189 Z M 210 193 Q 209 196 212 195 Q 213 192 210 193 Z M 211 197 L 212 202 L 212 203 Q 214 204 213 201 L 213 199 Q 214 196 211 197 Z M 244 202 L 243 205 L 244 207 Q 243 211 249 209 L 249 210 L 244 210 L 244 215 L 255 215 L 254 213 L 257 211 L 253 210 L 257 209 L 256 207 L 255 204 L 255 202 L 244 202 Z M 260 210 Q 257 211 258 215 L 253 217 Q 259 216 260 220 L 258 227 L 261 227 L 265 219 L 264 211 L 260 210 Z M 211 212 L 211 216 L 214 217 L 214 214 L 211 212 Z M 244 218 L 246 222 L 246 225 Q 248 229 257 227 Q 260 225 258 219 L 256 218 L 244 218 Z M 261 229 L 263 232 L 265 231 L 261 229 Z M 242 254 L 241 257 L 242 257 L 242 254 Z M 243 289 L 242 293 L 243 293 L 243 289 Z M 242 335 L 241 350 L 242 350 L 242 335 Z M 239 407 L 238 419 L 239 419 L 239 407 Z M 244 415 Q 243 418 246 417 Q 247 414 244 415 Z M 246 419 L 245 423 L 246 423 L 246 419 Z M 239 464 L 238 467 L 239 467 L 239 464 Z M 247 517 Q 245 520 248 519 L 247 517 Z M 247 527 L 246 532 L 247 532 L 247 527 Z " /><path fill="rgb(193,158,90)" stroke="rgb(193,158,90)" stroke-width="1" opacity="0.996078431372549" d="M 214 233 L 216 233.5 L 216 244.5 L 217 247.5 L 216 252.5 L 217 252.5 L 218.5 249 L 219 256.5 L 218 258.5 L 219 259.5 L 219 285.5 L 218 285.5 L 217.5 275 L 216 283.5 L 217 287.5 L 215 286.5 L 215 267.5 L 214 266.5 L 215 265.5 L 215 254.5 L 214 250.5 L 214 248.5 L 214 233 Z M 217 256 L 216 261 L 218 261 L 217 256 Z M 217 266 L 217 273 L 218 271 L 217 266 Z " /><path fill="rgb(193,158,90)" stroke="rgb(193,158,90)" stroke-width="1" opacity="0.996078431372549" d="M 217.5 239 L 218 242.5 L 217 242.5 L 217.5 239 Z " /><path fill="rgb(193,158,90)" stroke="rgb(193,158,90)" stroke-width="1" opacity="0.996078431372549" d="M 218.5 244 L 219 246.5 L 218 246.5 L 218.5 244 Z " /><path fill="rgb(193,158,90)" stroke="rgb(193,158,90)" stroke-width="1" opacity="0.996078431372549" d="M 216.5 292 L 217 329.5 L 218 330.5 L 217 331.5 L 216.5 354 L 216.5 292 Z " /><path fill="rgb(193,158,90)" stroke="rgb(193,158,90)" stroke-width="1" opacity="0.996078431372549" d="M 250.5 302 L 251 304 L 253 304.5 L 250 305 L 250.5 302 Z " /><path fill="rgb(193,158,90)" stroke="rgb(193,158,90)" stroke-width="1" opacity="0.996078431372549" d="M 219.5 303 L 220 326.5 L 219 326.5 L 219.5 303 Z " /><path fill="rgb(193,158,90)" stroke="rgb(193,158,90)" stroke-width="1" opacity="0.996078431372549" d="M 251 306 Q 254 304.8 253 308.5 L 251.5 317 L 251 306 Z " /><path fill="rgb(193,158,90)" stroke="rgb(193,158,90)" stroke-width="1" opacity="0.996078431372549" d="M 252.5 319 L 253 335.5 L 252 335.5 L 252.5 319 Z " /><path fill="rgb(193,158,90)" stroke="rgb(193,158,90)" stroke-width="1" opacity="0.996078431372549" d="M 257.5 323 L 258 325.5 L 257 325.5 L 257.5 323 Z " /><path fill="rgb(193,158,90)" stroke="rgb(193,158,90)" stroke-width="1" opacity="0.996078431372549" d="M 219.5 328 L 220 334.5 L 219 334.5 L 219.5 328 Z " /><path fill="rgb(193,158,90)" stroke="rgb(193,158,90)" stroke-width="1" opacity="0.996078431372549" d="M 236.5 331 L 237 334.5 L 236 334.5 L 236.5 331 Z " /><path fill="rgb(193,158,90)" stroke="rgb(193,158,90)" stroke-width="1" opacity="0.996078431372549" d="M 253.5 339 Q 252.8 345.7 256 348.5 L 254 348.5 L 253.5 350 L 253.5 339 Z " /><path fill="rgb(193,158,90)" stroke="rgb(193,158,90)" stroke-width="1" opacity="0.996078431372549" d="M 254.5 351 L 256 356.5 Q 253.5 358 255 363.5 Q 257.3 364.8 254.5 366 L 254.5 351 Z " /><path fill="rgb(193,158,90)" stroke="rgb(193,158,90)" stroke-width="1" opacity="0.996078431372549" d="M 217.5 355 L 218 358 Q 215.3 359.1 216 356.5 L 217.5 355 Z " /><path fill="rgb(193,158,90)" stroke="rgb(193,158,90)" stroke-width="1" opacity="0.996078431372549" d="M 217.5 359 L 218 411.5 L 219 414.5 L 218 415.5 L 218 444.5 L 219 447.5 L 217 448.5 L 217 368.5 L 216 367.5 L 217 363.5 L 217 361.5 L 217.5 359 Z " /><path fill="rgb(193,158,90)" stroke="rgb(193,158,90)" stroke-width="1" opacity="0.996078431372549" d="M 220.5 367 L 221 395.5 L 220 395.5 L 220.5 367 Z " /><path fill="rgb(193,158,90)" stroke="rgb(193,158,90)" stroke-width="1" opacity="0.996078431372549" d="M 255.5 369 L 254.5 371 L 255.5 369 Z " /><path fill="rgb(193,158,90)" stroke="rgb(193,158,90)" stroke-width="1" opacity="0.996078431372549" d="M 255.5 372 L 256 382.5 L 255 382.5 L 255.5 372 Z " /><path fill="rgb(193,158,90)" stroke="rgb(193,158,90)" stroke-width="1" opacity="0.996078431372549" d="M 256.5 388 L 257 395.5 L 256 395.5 L 256.5 388 Z " /><path fill="rgb(193,158,90)" stroke="rgb(193,158,90)" stroke-width="1" opacity="0.996078431372549" d="M 220.5 398 L 221 404.5 L 220 404.5 L 220.5 398 Z " /><path fill="rgb(193,158,90)" stroke="rgb(193,158,90)" stroke-width="1" opacity="0.996078431372549" d="M 257.5 402 L 258 414.5 L 257 414.5 L 257.5 402 Z " /><path fill="rgb(193,158,90)" stroke="rgb(193,158,90)" stroke-width="1" opacity="0.996078431372549" d="M 258.5 440 L 259 459.5 L 258 459.5 L 258.5 440 Z " /><path fill="rgb(193,158,90)" stroke="rgb(193,158,90)" stroke-width="1" opacity="0.996078431372549" d="M 235.5 446 L 236 448.5 L 235 448.5 L 235.5 446 Z " /><path fill="rgb(193,158,90)" stroke="rgb(193,158,90)" stroke-width="1" opacity="0.996078431372549" d="M 220.5 457 L 221 459.5 L 220 459.5 L 220.5 457 Z " /><path fill="rgb(193,158,90)" stroke="rgb(193,158,90)" stroke-width="1" opacity="0.996078431372549" d="M 217.5 458 L 219 463.5 L 219.5 557 L 220.5 555 L 222 558.5 L 221 561.5 L 221 563.5 L 222 567.5 Q 219.8 568.8 221 573.5 L 222 574.5 L 222 588.5 L 220.5 591 L 219 590.5 L 220.5 594 L 221.5 592 L 222 595 L 224 595.5 L 221.5 596 L 219 595.5 L 219.5 594 L 218 593.5 L 218 568.5 L 218 566.5 L 218 554.5 L 217 552.5 Q 219.3 551.3 218 546.5 L 217 544.5 L 218 541.5 L 217 538.5 L 218 535.5 L 218 533.5 L 218 519.5 L 217 518.5 L 218 517.5 L 218 490.5 L 218 488.5 L 217 480.5 L 218 478.5 L 217 476.5 Q 219.3 475.3 218 470.5 L 218 468.5 L 217 464.5 L 217 462.5 L 217.5 458 Z M 220 558 L 219 567 L 221 568 L 220 566 L 221 563 L 220 558 Z M 220 568 L 219 582 L 219 584 Q 217 590 221 589 L 221 575 L 220 568 Z " /><path fill="rgb(193,158,90)" stroke="rgb(193,158,90)" stroke-width="1" opacity="0.996078431372549" d="M 220.5 465 L 221 475.5 L 220 475.5 L 220.5 465 Z " /><path fill="rgb(193,158,90)" stroke="rgb(193,158,90)" stroke-width="1" opacity="0.996078431372549" d="M 235.5 466 L 236 471.5 L 235 471.5 L 235.5 466 Z " /><path fill="rgb(193,158,90)" stroke="rgb(193,158,90)" stroke-width="1" opacity="0.996078431372549" d="M 220.5 479 L 221 481.5 L 220 481.5 L 220.5 479 Z " /><path fill="rgb(193,158,90)" stroke="rgb(193,158,90)" stroke-width="1" opacity="0.996078431372549" d="M 259.5 482 L 260 488.5 L 259 488.5 L 259.5 482 Z " /><path fill="rgb(193,158,90)" stroke="rgb(193,158,90)" stroke-width="1" opacity="0.996078431372549" d="M 220.5 483 L 221 487.5 L 220 487.5 L 220.5 483 Z " /><path fill="rgb(193,158,90)" stroke="rgb(193,158,90)" stroke-width="1" opacity="0.996078431372549" d="M 259.5 490 L 260 505.5 L 259 505.5 L 259.5 490 Z " /><path fill="rgb(193,158,90)" stroke="rgb(193,158,90)" stroke-width="1" opacity="0.996078431372549" d="M 220.5 491 L 221 511.5 L 220 511.5 L 220.5 491 Z " /><path fill="rgb(193,158,90)" stroke="rgb(193,158,90)" stroke-width="1" opacity="0.996078431372549" d="M 260.5 507 L 261 509 L 259 508.5 L 260.5 507 Z " /><path fill="rgb(193,158,90)" stroke="rgb(193,158,90)" stroke-width="1" opacity="0.996078431372549" d="M 260.5 524 L 261 526.5 L 260 526.5 L 260.5 524 Z " /><path fill="rgb(193,158,90)" stroke="rgb(193,158,90)" stroke-width="1" opacity="0.996078431372549" d="M 260.5 535 L 261 547.5 L 260 547.5 L 260.5 535 Z " /><path fill="rgb(193,158,90)" stroke="rgb(193,158,90)" stroke-width="1" opacity="0.996078431372549" d="M 221.5 537 L 222 539.5 L 221 539.5 L 221.5 537 Z " /><path fill="rgb(193,158,90)" stroke="rgb(193,158,90)" stroke-width="1" opacity="0.996078431372549" d="M 221.5 542 L 222 553.5 L 221 553.5 L 221.5 542 Z " /><path fill="rgb(193,158,90)" stroke="rgb(193,158,90)" stroke-width="1" opacity="0.996078431372549" d="M 236.5 549 Q 238.9 551.3 238 556 L 236 555.5 L 236.5 549 Z " /><path fill="rgb(193,158,90)" stroke="rgb(193,158,90)" stroke-width="1" opacity="0.996078431372549" d="M 261.5 563 L 262 576.5 L 263 577.5 L 261.5 586 L 261.5 563 Z " /><path fill="rgb(193,158,90)" stroke="rgb(193,158,90)" stroke-width="1" opacity="0.996078431372549" d="M 241.5 594 L 253 594.5 Q 251.8 597.3 250.5 595 L 241.5 595 L 241.5 594 Z " /><path fill="rgb(193,158,90)" stroke="rgb(193,158,90)" stroke-width="1" opacity="0.996078431372549" d="M 251.5 644 L 252 651.5 L 251 651.5 L 251.5 644 Z " /><path fill="rgb(193,158,90)" stroke="rgb(193,158,90)" stroke-width="1" opacity="0.996078431372549" d="M 200.5 690 L 199.5 692 L 200.5 690 Z " /><path fill="rgb(193,158,90)" stroke="rgb(193,158,90)" stroke-width="1" opacity="0.996078431372549" d="M 230.5 711 L 231 712.5 L 229.5 715 L 229 713.5 L 230.5 711 Z " /><path fill="rgb(193,158,90)" stroke="rgb(193,158,90)" stroke-width="1" opacity="0.996078431372549" d="M 257.5 718 L 259 721.5 L 258 721.5 L 257.5 718 Z " /><path fill="rgb(193,158,90)" stroke="rgb(193,158,90)" stroke-width="1" opacity="0.996078431372549" d="M 229.5 731 L 230 759.5 L 229 759.5 L 229.5 731 Z " /><path fill="rgb(193,158,90)" stroke="rgb(193,158,90)" stroke-width="1" opacity="0.996078431372549" d="M 257.5 744 L 258 751.5 L 257 751.5 L 257.5 744 Z " /><path fill="rgb(193,158,90)" stroke="rgb(193,158,90)" stroke-width="1" opacity="0.996078431372549" d="M 256.5 802 L 257 807.5 L 256 807.5 L 256.5 802 Z " /><path fill="rgb(193,158,90)" stroke="rgb(193,158,90)" stroke-width="1" opacity="0.996078431372549" d="M 256.5 810 L 257 813.5 L 256 813.5 L 256.5 810 Z " /><path fill="rgb(193,158,90)" stroke="rgb(193,158,90)" stroke-width="1" opacity="0.996078431372549" d="M 256.5 816 L 257 821.5 L 256 821.5 L 256.5 816 Z " /><path fill="rgb(193,158,90)" stroke="rgb(193,158,90)" stroke-width="1" opacity="0.996078431372549" d="M 306.5 877 L 307 887.5 L 306 887.5 L 306.5 877 Z " /><path fill="rgb(193,158,90)" stroke="rgb(193,158,90)" stroke-width="1" opacity="0.996078431372549" d="M 229.5 894 L 230 896.5 L 229 896.5 L 229.5 894 Z " /><path fill="rgb(193,158,90)" stroke="rgb(193,158,90)" stroke-width="1" opacity="0.996078431372549" d="M 305.5 926 L 306 935.5 L 305 935.5 L 305.5 926 Z " /><path fill="rgb(193,158,90)" stroke="rgb(193,158,90)" stroke-width="1" opacity="0.996078431372549" d="M 255.5 949 L 256 951.5 L 255 951.5 L 255.5 949 Z " /><path fill="rgb(193,158,90)" stroke="rgb(193,158,90)" stroke-width="1" opacity="0.996078431372549" d="M 255.5 984 L 256 991.5 L 255 991.5 L 255.5 984 Z " /><path fill="rgb(193,158,90)" stroke="rgb(193,158,90)" stroke-width="1" opacity="0.996078431372549" d="M 228.5 997 L 229 1000.5 L 228 1000.5 L 228.5 997 Z " /><path fill="rgb(193,158,90)" stroke="rgb(193,158,90)" stroke-width="1" opacity="0.996078431372549" d="M 252.5 1012 L 251.5 1014 L 252.5 1012 Z " /><path fill="rgb(193,158,90)" stroke="rgb(193,158,90)" stroke-width="1" opacity="0.996078431372549" d="M 243.5 1018 L 245 1018.5 L 241.5 1021 L 241 1019 L 243.5 1018 Z " /><path fill="rgb(193,158,90)" stroke="rgb(193,158,90)" stroke-width="1" opacity="0.996078431372549" d="M 230.5 1170 L 233 1170.5 L 230.5 1171 L 230.5 1170 Z " /><path fill="rgb(248,200,21)" stroke="rgb(248,200,21)" stroke-width="1" opacity="0.9921568627450981" d="M 273.5 591 L 274.5 592 L 287.5 593 L 289 594.5 L 292 623.5 L 294 631.5 L 295 647.5 L 296 648.5 L 296 671.5 L 295 676.5 L 296 677.5 L 297 694.5 L 298 695.5 L 298 705.5 L 299 706.5 L 299 716.5 L 300 717.5 L 300 727.5 L 301 728.5 L 301 740.5 L 302 741.5 L 302 753.5 L 303 754.5 L 303 766.5 L 304 767.5 L 305 820.5 L 306 821.5 L 306 925.5 L 305 926.5 L 305 967.5 L 304 968.5 L 304 970.5 L 303 1021.5 L 304 1022.5 L 304 1058.5 L 305 1059.5 L 306 1087.5 L 307 1088.5 L 307 1097.5 L 308 1098.5 L 310 1120.5 L 314 1138.5 L 314 1149.5 L 307.5 1159 Q 297.4 1166.9 282.5 1170 L 233.5 1171 L 232.5 1170 L 221.5 1170 L 220.5 1169 L 207.5 1168 L 193.5 1165 L 177.5 1158 L 171 1151.5 Q 166.2 1146.3 168 1134.5 L 188 1090.5 L 199 1071.5 Q 201.3 1064.8 200 1054.5 L 196 1040.5 L 186 1019.5 L 195 1000.5 L 197 991.5 L 197 980.5 L 195 971.5 L 188 958.5 L 186 950.5 L 195 928.5 L 196 923.5 L 196 908.5 Q 193.4 895.1 187 885.5 L 187 877.5 L 191 865.5 L 194 842.5 L 195 841.5 L 196 800.5 L 197 799.5 L 197 773.5 L 198 772.5 L 198 746.5 L 199 745.5 L 199 723.5 L 200 722.5 L 200 696.5 L 201 695.5 L 199 692.5 L 201 690.5 L 201 675.5 L 202 674.5 L 201 672.5 L 202 671.5 L 203 629.5 Q 200.8 628.3 202 623.5 L 203 620.5 L 203 618.5 L 202 616.5 L 202 598.5 L 203 596 L 211.5 595 L 218.5 599 L 239.5 599 L 252.5 595 L 257.5 595 L 273.5 591 Z M 252 644 L 251 652 L 252 652 L 252 644 Z M 230 731 L 229 760 L 230 760 L 230 731 Z M 258 744 L 257 752 L 258 752 L 258 744 Z M 257 802 L 256 808 L 257 808 L 257 802 Z M 257 810 L 256 814 L 257 814 L 257 810 Z M 257 816 L 256 822 L 257 822 L 257 816 Z M 230 894 L 229 897 L 230 897 L 230 894 Z M 256 949 L 255 952 L 256 952 L 256 949 Z M 256 984 L 255 992 L 256 992 L 256 984 Z M 229 997 L 228 1001 L 229 1001 L 229 997 Z M 244 1018 L 241 1019 L 242 1021 L 245 1019 L 244 1018 Z " /></svg>